<?xml version="1.0" encoding="UTF-8" standalone="no"?>
<!-- Created with Inkscape (http://www.inkscape.org/) -->

<svg
   xmlns:dc="http://purl.org/dc/elements/1.1/"
   xmlns:cc="http://creativecommons.org/ns#"
   xmlns:rdf="http://www.w3.org/1999/02/22-rdf-syntax-ns#"
   xmlns:svg="http://www.w3.org/2000/svg"
   xmlns="http://www.w3.org/2000/svg"
   xmlns:sodipodi="http://sodipodi.sourceforge.net/DTD/sodipodi-0.dtd"
   xmlns:inkscape="http://www.inkscape.org/namespaces/inkscape"
   width="440"
   height="90"
   id="svg3394"
   version="1.1"
   inkscape:version="0.91 r13725"
   viewBox="0 0 440 90"
   sodipodi:docname="logo.svg"
   inkscape:export-filename="/Users/majid.khan/Downloads/logo.png"
   inkscape:export-xdpi="90"
   inkscape:export-ydpi="90">
  <defs
     id="defs3396" />
  <sodipodi:namedview
     id="base"
     pagecolor="#ffffff"
     bordercolor="#666666"
     borderopacity="1.0"
     inkscape:pageopacity="0.0"
     inkscape:pageshadow="2"
     inkscape:zoom="2.8284272"
     inkscape:cx="301.0288"
     inkscape:cy="69.838771"
     inkscape:document-units="px"
     inkscape:current-layer="layer1"
     showgrid="false"
     inkscape:window-width="1920"
     inkscape:window-height="1155"
     inkscape:window-x="1920"
     inkscape:window-y="1"
     inkscape:window-maximized="1"
     inkscape:snap-nodes="false" />
  <metadata
     id="metadata3399">
    <rdf:RDF>
      <cc:Work
         rdf:about="">
        <dc:format>image/svg+xml</dc:format>
        <dc:type
           rdf:resource="http://purl.org/dc/dcmitype/StillImage" />
        <dc:title />
      </cc:Work>
    </rdf:RDF>
  </metadata>
  <g
     id="layer1"
     inkscape:label="Muflihun.com"
     inkscape:groupmode="layer">
    <text
       xml:space="preserve"
       style="font-style:normal;font-weight:normal;font-size:102.79977417px;line-height:125%;font-family:sans-serif;letter-spacing:0px;word-spacing:0px;fill:#000000;fill-opacity:1;stroke:none;stroke-width:1px;stroke-linecap:butt;stroke-linejoin:miter;stroke-opacity:1"
       x="99.370003"
       y="63.5625"
       id="text3402"
       sodipodi:linespacing="125%"><tspan
         sodipodi:role="line"
         id="tspan3404"
         x="99.370003"
         y="63.5625"
         style="font-style:normal;font-variant:normal;font-weight:normal;font-stretch:normal;font-size:52.5px;font-family:Luminari;-inkscape-font-specification:Luminari">m<tspan
   style="font-style:normal;font-variant:normal;font-weight:normal;font-stretch:normal;font-size:52.5px;font-family:Luminari;-inkscape-font-specification:Luminari;fill:#c4692c;fill-opacity:1"
   id="tspan4248">u</tspan>flihûn.com</tspan></text>
  </g>
  <g
     inkscape:groupmode="layer"
     id="layer3"
     inkscape:label="Circle"
     sodipodi:insensitive="true">
    <circle
       style="opacity:1;fill:#c4692c;fill-opacity:1"
       id="path4277"
       cx="45.5"
       cy="45.5"
       r="44.5" />
  </g>
  <g
     inkscape:groupmode="layer"
     id="layer2"
     inkscape:label="Calvary"
     sodipodi:insensitive="true">
    <path
       id="path4442"
       style="fill:#ffffff"
       d="m 46.94024,14.254562 c -0.07385,0.004 -0.121755,0.01514 -0.144098,0.0288 -9.35e-4,5.51e-4 -0.0032,0.0035 -0.004,0.0041 -6.99e-4,5.49e-4 -0.0034,0.0034 -0.004,0.0041 -5.37e-4,7.15e-4 -0.0036,0.0034 -0.004,0.0041 -3.61e-4,7.15e-4 1.82e-4,0.0034 0,0.0041 -1.41e-4,7.18e-4 5.4e-5,0.0034 0,0.0041 3.2e-5,7.16e-4 -1.18e-4,0.0033 0,0.0041 1.82e-4,7.15e-4 -3.61e-4,0.0033 0,0.0041 6.97e-4,0.0016 0.0029,0.0066 0.004,0.0082 0.0032,0.0042 0.01069,0.0118 0.016,0.01645 0.166053,0.135939 1.219535,0.42792 3.002101,0.801974 2.851318,0.59832 7.923049,2.325648 10.879613,3.705535 1.320622,0.616362 1.974522,0.823933 2.185526,0.674481 0.0032,-0.0023 0.0092,-0.0057 0.012,-0.0082 0.0017,-0.0016 0.0062,-0.0066 0.008,-0.0082 0.0017,-0.0016 0.0063,-0.0065 0.008,-0.0082 0.01286,-0.01475 0.02433,-0.03436 0.032,-0.05346 0.01105,-0.02906 0.01604,-0.06411 0.01604,-0.102815 0,-0.451898 -0.648507,-0.821238 -3.326327,-1.900063 -2.792531,-1.124993 -9.071638,-2.816993 -11.520129,-3.100948 -0.582083,-0.06751 -0.963917,-0.09274 -1.160812,-0.08226 z m -0.744519,0.01645 c -0.110346,0.01401 -0.256442,0.102072 -0.388273,0.238537 -0.09082,0.09402 -0.152346,0.162739 -0.176123,0.205633 -10e-4,0.0021 -0.0031,0.0062 -0.004,0.0082 -9.35e-4,0.0018 -0.0033,0.0065 -0.004,0.0082 -5.37e-4,0.0016 3.6e-4,0.0067 0,0.0082 -5.37e-4,0.0023 -0.0039,0.0062 -0.004,0.0082 10e-7,7.16e-4 -4.2e-5,0.0035 0,0.0041 1.71e-4,10e-4 0.0036,0.003 0.004,0.0041 1.79e-4,5.52e-4 -1.81e-4,0.0036 0,0.0041 3.6e-4,3.71e-4 0.0036,0.0037 0.004,0.0041 9.32e-4,7.15e-4 0.0029,0.0035 0.004,0.0041 5.36e-4,1.86e-4 0.0033,-1.85e-4 0.004,0 0.0014,3.71e-4 0.0065,-1.85e-4 0.008,0 0.004,5.52e-4 0.01089,0.0042 0.01602,0.0041 0.05128,-0.0022 0.153625,-0.03822 0.308215,-0.0987 0.209488,-0.08195 0.350756,-0.194144 0.376261,-0.283776 5.35e-4,-0.0018 0.0036,-0.0063 0.004,-0.0082 3.61e-4,-0.0018 -1.81e-4,-0.0063 0,-0.0082 1.67e-4,-0.0018 -5.8e-5,-0.0065 0,-0.0082 2e-6,-0.0018 1.08e-4,-0.0065 0,-0.0082 -8.4e-5,-9.35e-4 1.1e-4,-0.0032 0,-0.0041 -3.6e-4,-0.0017 3.61e-4,-0.0066 0,-0.0082 -3.6e-4,-0.0016 -0.0034,-0.0066 -0.004,-0.0082 -3.61e-4,-7.15e-4 3.6e-4,-0.0033 0,-0.0041 -6.97e-4,-0.0016 -0.0031,-0.0067 -0.004,-0.0082 -5.35e-4,-7.16e-4 -0.0035,-0.0033 -0.004,-0.0041 -0.0031,-0.0046 -0.0078,-0.01215 -0.01201,-0.01645 -6.98e-4,-7.15e-4 -0.0032,-0.0034 -0.004,-0.0041 -0.0014,-0.0012 -0.0065,-0.0029 -0.008,-0.0041 -6.96e-4,-5.5e-4 -0.0032,-0.0036 -0.004,-0.0041 -0.0017,-10e-4 -0.0062,-0.0031 -0.008,-0.0041 -0.0018,-9.35e-4 -0.0062,-0.0032 -0.008,-0.0041 -0.0019,-7.15e-4 -0.006,-0.0033 -0.008,-0.0041 -0.0029,-10e-4 -0.009,-0.0032 -0.012,-0.0041 -0.0041,-0.001 -0.01167,-0.0034 -0.01602,-0.0041 -0.01753,-0.0026 -0.03951,-0.0026 -0.06005,0 z m -0.260184,0.962368 c -0.177186,0.01117 -0.298741,0.05282 -0.332233,0.115155 -0.0045,0.0093 -0.0075,0.02259 -0.008,0.0329 0,5.51e-4 -2.2e-5,0.0035 0,0.0041 4.3e-5,5.51e-4 -6.6e-5,0.0035 0,0.0041 6.96e-4,0.0047 0.0019,0.01164 0.004,0.01645 0.07287,0.145985 0.761074,0.339578 1.593114,0.440058 1.833023,0.22135 3.756571,0.667283 5.631938,1.303723 3.425265,1.162419 5.213264,1.859581 6.940852,2.710265 2.066144,1.017383 2.97136,1.18287 2.7139,0.493521 -0.334216,-0.89495 -9.127383,-3.944956 -13.413342,-4.651447 -0.874984,-0.144231 -2.016741,-0.333597 -2.533776,-0.423607 -0.226199,-0.03938 -0.433751,-0.05548 -0.596414,-0.04525 z m 17.956559,3.018717 c -0.01319,0.0027 -0.02733,0.0094 -0.03602,0.01645 -0.001,7.17e-4 -0.0032,0.0033 -0.0037,0.0041 -0.0048,0.0048 -0.0083,0.01109 -0.012,0.01645 -0.0037,0.0054 -0.0095,0.01456 -0.012,0.02056 -10e-4,0.003 -0.0032,0.0092 -0.0037,0.01233 -10e-4,0.0043 -0.0032,0.01196 -0.0037,0.01645 -0.001,0.0056 1.82e-4,0.01458 0,0.02056 -0.001,0.119779 0.11899,0.300103 0.316223,0.448283 0.688412,0.5172 0.899748,1.510998 0.508351,2.393587 -0.299498,0.675376 -0.471983,0.758947 -1.272889,0.604565 -0.805881,-0.155335 -1.011356,-0.0547 -1.585106,0.773189 -0.338715,0.488742 -0.493902,0.723382 -0.476334,0.785522 1.6e-4,3.71e-4 -1.83e-4,0.0037 0,0.0041 1.81e-4,3.7e-4 0.0037,0.0039 0.0037,0.0041 3.65e-4,1.84e-4 0.0037,0.0039 0.0037,0.0041 3.61e-4,1.85e-4 0.0037,-1.85e-4 0.0037,0 0.0017,5.51e-4 0.0059,0.0037 0.008,0.0041 0.05056,0.0051 0.179349,-0.06416 0.384263,-0.176844 0.48863,-0.268686 0.618019,-0.227054 0.736516,0.238534 0.172728,0.678626 -1.232741,2.124133 -2.601819,2.677364 -0.511762,0.206793 -1.081038,0.562047 -1.264884,0.789636 -0.127847,0.158281 -0.165577,0.274561 -0.136092,0.345468 0.113345,0.246678 1.078079,-0.02944 1.925346,-0.662146 0.540559,-0.403666 1.666542,-1.1547 2.501747,-1.665639 0.948265,-0.580104 1.52107,-1.133136 1.521065,-1.472345 0,-0.298764 0.322783,-0.937351 0.720507,-1.42299 0.98755,-1.205723 0.93149,-2.20147 -0.180136,-3.162515 -0.45062,-0.389581 -0.891886,-0.647918 -1.044735,-0.616903 z m -7.95356,1.77668 c -0.201699,0.02078 -0.867692,0.30152 -2.025419,0.847217 -0.879589,0.414597 -1.376958,0.838508 -1.376962,1.172118 0,0.287 0.208671,0.522313 0.464323,0.522313 0.156978,0 0.264718,-0.05171 0.31222,-0.139833 0.03733,-0.07265 0.03621,-0.173598 -0.008,-0.292001 -0.100798,-0.269897 0.07765,-0.508486 0.476335,-0.637468 0.349826,-0.113174 1.092346,-0.536789 1.649153,-0.941808 0.342165,-0.248888 0.532884,-0.411356 0.5684,-0.485295 0.0017,-0.0036 0.0032,-0.0092 0.0037,-0.01234 1.55e-4,-7.15e-4 -1.02e-4,-0.0033 0,-0.0041 5.4e-5,-7.18e-4 -5e-6,-0.0034 0,-0.0041 -3.7e-5,-7.16e-4 9.7e-5,-0.0034 0,-0.0041 -1.4e-4,-5.52e-4 1.81e-4,-0.0035 0,-0.0041 -3.59e-4,-5.49e-4 -0.0037,-0.0036 -0.0037,-0.0041 -3.59e-4,-3.7e-4 -0.0037,-0.0037 -0.0037,-0.0041 -0.0017,-0.001 -0.0058,-0.0033 -0.008,-0.0041 -0.0048,-0.0015 -0.01356,-0.0037 -0.02,-0.0041 -0.0079,-3.72e-4 -0.01774,-0.001 -0.02803,0 z m 7.993591,0.460624 c -0.0075,0.0018 -0.01694,0.0076 -0.02401,0.01233 -0.0099,0.0072 -0.02327,0.02045 -0.032,0.03289 -0.03538,0.05297 -0.06005,0.14616 -0.06005,0.250877 0,0.163453 0.139736,0.300222 0.308213,0.300223 0.168477,0 0.226418,-0.136772 0.128094,-0.300223 -0.09218,-0.153239 -0.222895,-0.280825 -0.29621,-0.296114 -0.0037,-5.51e-4 -0.0087,0 -0.012,0 -0.0022,0 -0.0058,-1.86e-4 -0.008,0 -10e-4,1.84e-4 -0.0026,-1.86e-4 -0.0037,0 z m -6.960871,0.127495 c -0.282926,0.01717 -0.929626,0.25923 -1.617132,0.616903 -1.40107,0.728905 -1.540551,0.892196 -1.432998,1.645077 0.09752,0.682715 -0.03258,0.915528 -0.72451,1.283158 -0.465304,0.247225 -1.018107,0.657057 -1.224858,0.913018 -0.120678,0.1494 -0.19302,0.264154 -0.212147,0.337241 -0.0014,0.0057 -0.0032,0.01518 -0.004,0.02057 -3.6e-4,0.0031 9.2e-5,0.0094 0,0.01233 0,0.0021 -1.1e-4,0.0065 0,0.0082 3.62e-4,0.0036 0.0032,0.009 0.004,0.01232 5.36e-4,0.0017 -5.36e-4,0.0067 0,0.0082 3.62e-4,7.17e-4 0.0036,0.0034 0.004,0.0041 0.001,0.0021 0.0026,0.0062 0.004,0.0082 5.35e-4,5.52e-4 0.0035,0.0035 0.004,0.0041 10e-4,0.001 0.0028,0.003 0.004,0.0041 6.96e-4,5.51e-4 0.0033,0.0036 0.004,0.0041 0.0014,9.6e-4 0.0065,0.0032 0.008,0.0041 6.97e-4,3.71e-4 0.0032,-3.71e-4 0.004,0 0.0017,7.15e-4 0.0062,0.0034 0.008,0.0041 0.0028,9.6e-4 0.009,0.0033 0.012,0.0041 0.155667,0.03325 0.639473,-0.159582 1.501051,-0.588116 1.047282,-0.520899 1.248871,-0.763049 1.248871,-1.488792 0,-0.737048 0.114827,-0.870699 0.792558,-0.900683 0.437485,-0.01936 0.918501,-0.01213 1.064741,0.01645 0.0056,10e-4 0.01094,0.0037 0.01603,0.0041 0.0032,1.85e-4 0.0092,5.1e-5 0.012,0 0.0017,-8.6e-5 0.0062,1.85e-4 0.008,0 0.001,-1.19e-4 0.0032,1.44e-4 0.0037,0 0.0017,-3.71e-4 0.0066,-0.0037 0.008,-0.0041 5.36e-4,-1.86e-4 0.0032,1.86e-4 0.0037,0 0.001,-5.51e-4 0.0026,-0.0034 0.0037,-0.0041 5.37e-4,-3.7e-4 0.0032,3.72e-4 0.0037,0 5.37e-4,-3.7e-4 0.0037,-0.0037 0.0037,-0.0041 5.36e-4,-5.51e-4 0.0037,-0.0036 0.0037,-0.0041 10e-4,-0.001 0.0032,-0.003 0.0037,-0.0041 3.65e-4,-5.52e-4 -3.59e-4,-0.0034 0,-0.0041 3.65e-4,-7.15e-4 0.0037,-0.0034 0.0037,-0.0041 1.77e-4,-7.17e-4 -1.82e-4,-0.0034 0,-0.0041 1.77e-4,-7.17e-4 -1.82e-4,-0.0033 0,-0.0041 3.59e-4,-0.0014 0.0037,-0.0066 0.0037,-0.0082 9.1e-5,-7.15e-4 -6.9e-5,-0.0032 0,-0.0041 9.1e-5,-0.0018 -6e-6,-0.0065 0,-0.0082 -0.0017,-0.07428 -0.07511,-0.213663 -0.208146,-0.378367 -0.396283,-0.490604 -0.217782,-0.766268 0.72851,-1.135103 0.159084,-0.062 0.1978,-0.215734 0.08806,-0.337239 -5.36e-4,-3.74e-4 -0.0037,-0.0037 -0.0037,-0.0041 -0.0239,-0.01871 -0.07028,-0.02843 -0.132092,-0.02466 z m 1.18483,0.900679 c -0.0043,7.15e-4 -0.01174,0.0031 -0.01603,0.0041 -0.0032,7.18e-4 -0.0091,0.0031 -0.012,0.0041 -0.0032,0.001 -0.0092,0.0029 -0.012,0.0041 -0.0017,9.61e-4 -0.0062,0.0031 -0.008,0.0041 -0.0037,0.002 -0.0087,0.0057 -0.012,0.0082 -0.008,0.0061 -0.01764,0.01652 -0.02402,0.02469 -5.36e-4,9.59e-4 -0.0032,0.0032 -0.0037,0.0041 -0.0037,0.0052 -0.0091,0.01455 -0.012,0.02056 -0.0017,0.0031 -0.0026,0.0091 -0.0037,0.01232 -0.03469,0.09401 -0.01061,0.263174 0.08006,0.505861 0.09421,0.252233 0.465646,0.453723 0.828584,0.448285 l 0.66046,-0.0082 -0.69248,-0.592226 c -0.362374,-0.31018 -0.624875,-0.455944 -0.768643,-0.440259 -0.001,1.45e-4 -0.0026,-1.69e-4 -0.0037,0 z m 4.883415,0.871889 c 0.218258,-0.01947 0.48834,0.20046 0.48834,0.493523 0,0.153808 -0.107593,0.279666 -0.240169,0.279664 -0.376622,0 -0.629185,-0.35008 -0.456317,-0.637467 0.05055,-0.08405 0.126008,-0.128393 0.208146,-0.13572 z m -7.381164,0.514088 c -0.052,0.0049 -0.09647,0.0251 -0.132092,0.06169 -0.08489,0.08722 -0.06884,0.302737 0.03603,0.477072 0.235654,0.39176 0.732511,0.416812 0.732511,0.03703 0,-0.290374 -0.385785,-0.59967 -0.636444,-0.575774 z m 3.510457,0.02056 c -0.150041,0.01095 -0.379519,0.04814 -0.704495,0.106935 -1.398951,0.253076 -1.651098,0.385923 -1.433001,0.748511 0.217947,0.36232 1.602384,0.02448 2.157508,-0.526426 0.130784,-0.129785 0.206845,-0.218774 0.208148,-0.271438 -1.45e-4,-0.0034 -0.0032,-0.0092 -0.0037,-0.01233 -1.62e-4,-5.5e-4 1.76e-4,-0.0036 0,-0.0041 -3.6e-4,-9.59e-4 -0.0037,-0.0032 -0.0037,-0.0041 -3.66e-4,-3.7e-4 3.58e-4,-0.0036 0,-0.0041 -10e-4,-0.0017 -0.0062,-0.0067 -0.008,-0.0082 -0.0026,-0.0024 -0.0084,-0.0062 -0.012,-0.0082 -0.03373,-0.01685 -0.10132,-0.02367 -0.200137,-0.01645 z m -5.443806,2.61567 c -0.454656,0 -1.486744,1.414199 -1.332933,1.826035 0.0971,0.260006 -0.190373,0.696455 -0.724509,1.102202 -0.486004,0.369182 -0.805858,0.798945 -0.712496,0.954145 0.257496,0.428076 0.69181,0.34125 1.773239,-0.345467 0.670765,-0.425935 0.937057,-0.780433 0.832583,-1.118652 -0.08432,-0.272959 -0.03516,-0.928412 0.112078,-1.455895 0.126531,-0.453302 0.161296,-0.839085 0.09206,-0.937691 -6.95e-4,-9.59e-4 -0.0033,-0.0033 -0.004,-0.0041 -6.96e-4,-7.17e-4 -0.0033,-0.0034 -0.004,-0.0041 -0.0029,-0.0027 -0.0088,-0.0065 -0.012,-0.0082 -0.0017,-7.17e-4 -0.0062,-0.0034 -0.008,-0.0041 -9.35e-4,-1.85e-4 -0.0031,1.85e-4 -0.004,0 -0.0026,-3.69e-4 -0.0052,-0.0041 -0.008,-0.0041 z m 8.790145,0.538763 -0.912637,0.62513 c -0.501816,0.34268 -1.093488,0.621019 -1.316923,0.621016 -0.22344,0 -0.659866,0.195964 -0.968673,0.435944 -0.308815,0.239984 -0.95174,0.444696 -1.429003,0.452398 -1.235416,0.01994 -1.710196,0.403852 -1.501047,1.225582 0.09661,0.379618 -0.03045,1.426917 -0.284203,2.323668 -0.329179,1.163431 -0.365509,1.659728 -0.132092,1.739669 0.561553,0.192326 0.392065,1.310357 -0.180125,1.188569 -0.349877,-0.07446 -0.489953,-0.356161 -0.452314,-0.913017 0.02783,-0.411941 -0.05647,-0.75587 -0.188135,-0.801976 -0.0056,-0.0017 -0.01426,-0.0034 -0.01999,-0.0041 -0.0022,-1.76e-4 -0.0056,0 -0.008,0 -0.149261,0 -0.272188,0.150944 -0.272188,0.33724 0,0.186303 -0.192462,0.488895 -0.428299,0.67037 -0.356653,0.274435 -0.370084,0.455452 -0.06805,1.073415 0.518853,1.061552 2.284176,1.215298 2.741921,0.238534 0.103848,-0.221594 0.179133,-0.357817 0.232159,-0.407156 0.0048,-0.0041 0.01169,-0.0095 0.01602,-0.01235 0.0017,-9.6e-4 0.0062,-0.0033 0.008,-0.0041 0.0026,-0.001 0.0056,-0.0036 0.008,-0.0041 0.0017,-1.85e-4 0.0066,4.9e-5 0.008,0 5.36e-4,3.1e-5 0.0032,-8.1e-5 0.0037,0 5.36e-4,1.34e-4 0.0032,-1.85e-4 0.0037,0 5.37e-4,1.88e-4 0.0032,0.0039 0.0037,0.0041 5.36e-4,3.7e-4 0.0032,-3.72e-4 0.0037,0 5.35e-4,3.7e-4 0.0032,0.0036 0.0037,0.0041 0.0266,0.02512 0.03891,0.104213 0.04402,0.234425 0.01078,0.274915 -0.384102,0.79652 -0.880612,1.159781 -0.840859,0.615179 -0.893327,0.755392 -0.744526,2.027558 0.185546,1.586272 1.53138,4.770202 2.029423,4.803621 0.0087,5.52e-4 0.01764,0.0029 0.02401,0.0041 0.0021,5.51e-4 0.0062,0.0036 0.008,0.0041 0.0022,9.59e-4 0.0062,0.0031 0.008,0.0041 5.36e-4,3.7e-4 0.0037,-3.7e-4 0.0037,0 10e-4,7.16e-4 0.0032,0.0032 0.0037,0.0041 1.76e-4,3.71e-4 -1.61e-4,0.0036 0,0.0041 3.7e-5,5.5e-4 2.1e-5,0.0036 0,0.0041 -8.7e-5,5.51e-4 1.4e-4,0.0035 0,0.0041 -1.83e-4,5.51e-4 1.76e-4,0.0035 0,0.0041 -5.36e-4,0.0014 -0.0032,0.0029 -0.0037,0.0041 -5.36e-4,7.16e-4 -0.0032,0.0034 -0.0037,0.0041 -5.36e-4,7.16e-4 -0.0032,0.0034 -0.0037,0.0041 -5.37e-4,7.15e-4 -0.0032,0.0033 -0.0037,0.0041 -0.07792,0.06899 -0.396185,0.20318 -0.848596,0.349579 -0.947974,0.306762 -1.238974,0.304915 -1.613126,-0.02056 -0.935564,-0.813847 -1.197397,-0.07494 -0.352247,0.995271 0.390528,0.494515 0.636036,0.569051 1.176819,0.357805 0.375531,-0.146698 0.997614,-0.267324 1.384974,-0.267326 0.507714,0 0.70449,-0.16224 0.70449,-0.584001 0,-0.397949 0.14119,-0.531746 0.436305,-0.415381 0.129026,0.05087 0.227582,0.06722 0.296211,0.05347 0.01352,-0.003 0.02889,-0.007 0.04006,-0.01233 0.0059,-0.0031 0.0148,-0.0085 0.01999,-0.01233 0.0084,-0.0065 0.01747,-0.01632 0.02401,-0.02466 5.37e-4,-9.59e-4 0.0032,-0.0032 0.0037,-0.0041 0.0037,-0.0053 0.0092,-0.01454 0.012,-0.02057 0.0017,-0.0031 0.0026,-0.0091 0.0037,-0.01233 0.0022,-0.0054 0.0066,-0.01462 0.008,-0.02056 0.03963,-0.182162 -0.146002,-0.573621 -0.544381,-1.093979 -0.31179,-0.407252 -0.845658,-1.619716 -1.188835,-2.693812 l -0.624436,-1.949414 0.972679,-1.205019 c 0.654892,-0.810178 1.070139,-1.205888 1.268889,-1.200905 0.0056,1.85e-4 0.01468,0.0032 0.01999,0.0041 0.01362,0.0029 0.02879,0.0092 0.04006,0.01645 0.0017,10e-4 0.0062,0.0029 0.008,0.0041 5.37e-4,7.16e-4 0.0032,0.0034 0.0037,0.0041 0.0032,0.0029 0.0092,0.009 0.012,0.01233 5.35e-4,9.59e-4 0.0032,0.0032 0.0037,0.0041 0.0022,0.0027 0.006,0.0094 0.008,0.01233 0.0022,0.003 0.0062,0.0091 0.008,0.01233 0.02402,0.04679 0.03603,0.116773 0.03603,0.209745 0,0.100808 0.02445,0.178814 0.06404,0.230312 0.198986,0.248579 0.788104,-0.06428 0.88862,-0.600453 l 0.124089,-0.670368 0.04006,0.670368 c 0.04299,0.730051 0.328822,0.850719 0.820575,0.345465 0.228562,-0.234835 0.485493,-0.231639 0.936659,0.01645 0.343124,0.188675 0.975358,0.291615 1.40498,0.230308 0.283982,-0.04051 0.462602,-0.06842 0.512362,-0.115153 5.35e-4,-5.51e-4 0.0037,-0.0036 0.0037,-0.0041 3.59e-4,-5.49e-4 0.0037,-0.0036 0.0037,-0.0041 3.64e-4,-5.51e-4 -3.59e-4,-0.0036 0,-0.0041 5.37e-4,-10e-4 0.0037,-0.003 0.0037,-0.0041 1.55e-4,-5.51e-4 -1.33e-4,-0.0036 0,-0.0041 1.02e-4,-5.5e-4 -7.5e-5,-0.0036 0,-0.0041 4.2e-5,-5.51e-4 -2.1e-5,-0.0035 0,-0.0041 -3.8e-5,-5.51e-4 6.4e-5,-0.0035 0,-0.0041 -9.7e-5,-5.52e-4 1.17e-4,-0.0035 0,-0.0041 -1.5e-4,-5.52e-4 1.77e-4,-0.0035 0,-0.0041 -1.82e-4,-5.5e-4 -0.0037,-0.0034 -0.0037,-0.0041 -3.59e-4,-5.5e-4 3.64e-4,-0.0034 0,-0.0041 -0.04509,-0.08333 -0.331404,-0.219061 -0.896624,-0.481184 -0.636353,-0.295112 -1.465285,-0.657484 -1.845291,-0.806088 -0.243443,-0.09521 -0.429107,-0.215184 -0.504352,-0.312565 -0.0097,-0.013 -0.01827,-0.02895 -0.02401,-0.04112 -0.0021,-0.0044 -0.0067,-0.01218 -0.008,-0.01645 -0.001,-0.0032 -0.0032,-0.0092 -0.0037,-0.01233 -5.37e-4,-0.0031 1.82e-4,-0.0093 0,-0.01233 -4.9e-5,-0.0021 -9.8e-5,-0.0062 0,-0.0082 1.77e-4,-0.0019 -3.59e-4,-0.0065 0,-0.0082 3.6e-4,-0.0018 0.0032,-0.0065 0.0037,-0.0082 5.36e-4,-0.0018 0.0032,-0.0065 0.0037,-0.0082 10e-4,-0.0017 0.0032,-0.0066 0.0037,-0.0082 0.0021,-0.0033 0.0053,-0.0092 0.008,-0.01233 0.0043,-0.0046 0.01335,-0.0087 0.01999,-0.01233 0.141355,-0.06828 0.718089,0.06557 1.328929,0.316677 0.646164,0.265643 1.311777,0.485297 1.477032,0.485297 0.07977,0 0.136139,-0.01254 0.172121,-0.03289 0.0032,-0.0018 0.0092,-0.0062 0.012,-0.0082 0.0053,-0.0041 0.012,-0.01184 0.01602,-0.01645 5.37e-4,-7.17e-4 0.0032,-0.0033 0.0037,-0.0041 5.37e-4,-7.16e-4 0.0032,-0.0033 0.0037,-0.0041 10e-4,-0.0017 0.0032,-0.0065 0.0037,-0.0082 5.35e-4,-0.0018 0.0032,-0.0065 0.0037,-0.0082 5.36e-4,-0.0018 -3.65e-4,-0.0065 0,-0.0082 5.36e-4,-0.003 0.0037,-0.0093 0.0037,-0.01233 1.78e-4,-0.003 1.24e-4,-0.0092 0,-0.01233 -3.58e-4,-0.0043 -0.0032,-0.01196 -0.0037,-0.01645 -0.04326,-0.209096 -0.626783,-0.627638 -1.420993,-0.954144 -0.608224,-0.250041 -1.109682,-0.568753 -1.132796,-0.715605 -1.78e-4,-0.0024 0,-0.006 0,-0.0082 0,-0.433091 2.906009,-2.648574 3.474431,-2.648574 0.887161,0 1.927354,1.791697 2.753927,4.754274 0.171217,0.613659 0.265922,0.927656 0.320222,0.978818 3.59e-4,3.72e-4 0.0037,0.0039 0.0037,0.0041 3.63e-4,1.85e-4 0.0037,-1.79e-4 0.0037,0 3.59e-4,8.6e-5 0.0037,-5.3e-5 0.0037,0 3.59e-4,-5e-6 0.0037,3.6e-5 0.0037,0 3.64e-4,-1.27e-4 0.0037,1.58e-4 0.0037,0 3.58e-4,-1.86e-4 0.0037,-0.0039 0.0037,-0.0041 3.59e-4,-3.7e-4 0.0037,-0.0037 0.0037,-0.0041 0.02927,-0.04496 0.03909,-0.23566 0.04804,-0.551103 0.03131,-1.104301 -0.72545,-3.875886 -1.320921,-4.832413 -0.250316,-0.402089 -0.320136,-0.699757 -0.264184,-0.830762 0.0067,-0.01474 0.01813,-0.03083 0.02803,-0.04113 5.36e-4,-7.16e-4 0.0032,-0.0033 0.0037,-0.0041 0.0043,-0.0036 0.01148,-0.0094 0.01602,-0.01232 0.0017,-0.001 0.006,-0.0031 0.008,-0.0041 0.0026,-0.0014 0.009,-0.003 0.012,-0.0041 0.0053,-0.0018 0.01437,-0.0031 0.02,-0.0041 0.12234,-0.01962 0.341611,0.121697 0.604423,0.477071 0.631475,0.853881 1.65646,0.607874 2.233563,-0.538761 0.383449,-0.761866 0.51382,-1.699416 0.332232,-1.908289 -0.01538,-0.01682 -0.03625,-0.03087 -0.05603,-0.03703 -0.03892,-0.01062 -0.08819,-0.0026 -0.144103,0.03289 -0.01865,0.01182 -0.03838,0.02303 -0.05603,0.0288 -0.0071,0.0022 -0.01715,0.003 -0.02401,0.0041 -0.0068,10e-4 -0.01743,0.004 -0.02401,0.0041 -0.0043,4e-6 -0.01174,3.73e-4 -0.01603,0 -0.0043,-5.5e-4 -0.01191,-0.0032 -0.01604,-0.0041 -0.0032,-7.15e-4 -0.0091,-0.0032 -0.012,-0.0041 -0.0032,-0.001 -0.0092,-0.003 -0.012,-0.0041 -0.0022,-9.58e-4 -0.006,-0.0031 -0.008,-0.0041 -0.0021,-9.6e-4 -0.0062,-0.003 -0.008,-0.0041 -0.0017,-0.001 -0.0062,-0.0029 -0.008,-0.0041 -0.0071,-0.0051 -0.01754,-0.01406 -0.02401,-0.02056 -0.04959,-0.05177 -0.08006,-0.148003 -0.08006,-0.271438 0,-0.188686 -0.0097,-0.315684 -0.05603,-0.378367 -0.0032,-0.0039 -0.0087,-0.009 -0.012,-0.01232 -5.35e-4,-7.16e-4 -0.0032,-0.0034 -0.0037,-0.0041 -5.35e-4,-5.49e-4 -0.0032,-0.0035 -0.0037,-0.0041 -5.37e-4,-5.5e-4 -0.0032,-0.0036 -0.0037,-0.0041 -0.0043,-0.0031 -0.01105,-0.0057 -0.01603,-0.0082 -0.0017,-7.15e-4 -0.0062,-0.0034 -0.008,-0.0041 -0.0043,-0.0014 -0.01121,-0.0031 -0.01604,-0.0041 -0.0026,-5.51e-4 -0.009,3.71e-4 -0.012,0 -0.148454,-0.01367 -0.459889,0.18782 -1.104777,0.637466 -0.535531,0.373402 -0.921064,0.841819 -0.856599,1.040511 0.07013,0.216185 -0.159856,0.361917 -0.572403,0.361918 -0.379154,0 -0.845819,0.157549 -1.036725,0.353692 -0.09702,0.09969 -0.171575,0.158128 -0.224154,0.164507 -0.0043,3.7e-4 -0.01179,3.7e-4 -0.01602,0 -0.0032,-3.72e-4 -0.0091,-0.0032 -0.012,-0.0041 -0.0026,-9.6e-4 -0.0093,-0.0027 -0.012,-0.0041 -0.001,-5.5e-4 -0.0032,-0.0035 -0.0037,-0.0041 -0.0043,-0.0031 -0.01212,-0.008 -0.01602,-0.01233 -0.0022,-0.0027 -0.0058,-0.0092 -0.008,-0.01232 -0.0392,-0.06139 -0.05603,-0.201125 -0.05603,-0.423605 0,-0.314652 -0.04459,-0.580352 -0.104077,-0.641582 -0.0017,-0.0014 -0.0063,-0.0029 -0.008,-0.0041 -10e-4,-7.17e-4 -0.0026,-0.0034 -0.0037,-0.0041 -5.37e-4,-1.86e-4 -0.0032,1.85e-4 -0.0037,0 -0.001,-3.73e-4 -0.0026,-0.0039 -0.0037,-0.0041 -5.36e-4,-1.08e-4 -0.0032,7.1e-5 -0.0037,0 -5.36e-4,-3.7e-5 -0.0032,0 -0.0037,0 -0.286287,0.02047 -3.798002,2.643202 -4.299004,3.212013 -0.323134,0.366861 -0.756496,0.534751 -1.152804,0.448282 -0.241407,-0.05268 -0.39067,-0.08302 -0.448314,-0.07402 -0.0032,5.51e-4 -0.0093,0.0032 -0.012,0.0041 -0.0021,10e-4 -0.0062,0.0027 -0.008,0.0041 -10e-4,9.58e-4 -0.0032,0.003 -0.0037,0.0041 -3.6e-4,5.5e-4 1.83e-4,0.0034 0,0.0041 -1.56e-4,7.17e-4 8.7e-5,0.0034 0,0.0041 -1.2e-5,7.15e-4 -5.5e-5,0.0033 0,0.0041 1.83e-4,0.0017 -5.37e-4,0.0065 0,0.0082 5.35e-4,0.0018 0.0032,0.0062 0.0037,0.0082 0.02974,0.05545 0.163201,0.170905 0.392272,0.361916 0.24502,0.204309 0.382886,0.358785 0.416295,0.464737 0.0017,0.0057 0.0069,0.01503 0.008,0.02056 5.37e-4,0.0043 -3.59e-4,0.01226 0,0.01645 1.14e-4,0.0021 -5e-6,0.0061 0,0.0082 -6.9e-5,0.003 3.6e-4,0.0095 0,0.01233 -1.76e-4,0.0018 3.6e-4,0.0065 0,0.0082 -3.59e-4,0.0018 -0.0032,0.0065 -0.0037,0.0082 -0.001,0.0035 -0.0026,0.009 -0.0037,0.01233 -10e-4,0.0017 -0.0032,0.0067 -0.0037,0.0082 -5.35e-4,7.15e-4 -0.0037,0.0033 -0.0037,0.0041 -5.35e-4,7.17e-4 -0.0032,0.0033 -0.0037,0.0041 -0.0043,0.0051 -0.01051,0.01189 -0.01602,0.01645 -5.36e-4,5.53e-4 -0.0032,0.0034 -0.0037,0.0041 -0.0053,0.0037 -0.01388,0.0091 -0.02,0.01233 -0.11728,0.05938 -0.39982,0.04333 -0.848597,-0.04525 -0.46044,-0.09088 -0.775644,-0.314655 -0.812564,-0.481188 -5.36e-4,-0.0032 3.59e-4,-0.0091 0,-0.01232 -5.36e-4,-0.0043 -0.0037,-0.01226 -0.0037,-0.01645 -4e-6,-0.0073 0.0026,-0.01771 0.0037,-0.02466 0.0017,-0.0088 0.0043,-0.02047 0.008,-0.0288 0.0017,-0.0036 0.0058,-0.0087 0.008,-0.01232 0.0026,-0.0043 0.0083,-0.0123 0.012,-0.01645 0.0032,-0.0033 0.0085,-0.0092 0.012,-0.01233 0.05259,-0.04647 0.154554,-0.07401 0.312218,-0.07401 0.087,0 0.150174,-0.02259 0.18013,-0.05347 0.0037,-0.0042 0.0094,-0.01182 0.012,-0.01645 0.01609,-0.03304 0.0048,-0.07744 -0.04006,-0.123381 -5.35e-4,-7.16e-4 -0.0032,-0.0033 -0.0037,-0.0041 -10e-4,-7.16e-4 -0.0032,-0.0033 -0.0037,-0.0041 -0.0026,-0.0022 -0.0092,-0.0062 -0.012,-0.0082 -0.0088,-0.0056 -0.02149,-0.01271 -0.032,-0.01645 -0.13079,-0.0431 -0.381251,0.05648 -0.604424,0.246762 -0.404339,0.344787 -0.530937,0.321206 -0.876612,-0.164509 -0.270107,-0.379538 -0.306357,-0.668161 -0.11208,-0.867777 0.159686,-0.164067 0.288207,-0.653407 0.288202,-1.085749 0,-0.975908 0.648012,-1.560732 2.253575,-2.03167 0.6831,-0.200364 1.659456,-0.769286 2.169517,-1.26671 l 0.92865,-0.904792 z m -4.567194,0.357803 c -0.08859,0.01743 -0.678613,0.193579 -1.360951,0.403044 -0.715892,0.219767 -1.47888,0.336096 -1.693185,0.2591 -0.08089,-0.02906 -0.143135,-0.04426 -0.184127,-0.04113 -0.0059,5.5e-4 -0.015,0.0027 -0.02001,0.0041 -0.0019,5.52e-4 -0.0062,0.0033 -0.008,0.0041 -0.0018,7.15e-4 -0.0063,0.0032 -0.008,0.0041 -0.006,0.004 -0.01203,0.01034 -0.01602,0.01645 -9.34e-4,0.0017 -0.0032,0.0065 -0.004,0.0082 -6.96e-4,0.0018 -0.0034,0.0062 -0.004,0.0082 -0.01734,0.06606 0.03634,0.206535 0.160114,0.444169 0.145184,0.278721 0.209364,0.580152 0.160113,0.723833 -0.0066,0.01793 -0.01785,0.03681 -0.02804,0.04935 -5.36e-4,9.61e-4 -0.0032,0.0033 -0.0037,0.0041 -0.0086,0.0088 -0.01871,0.02024 -0.02401,0.0288 -10e-4,0.0014 -0.0032,0.0067 -0.0037,0.0082 -3.64e-4,7.16e-4 3.6e-4,0.0033 0,0.0041 -3.64e-4,7.15e-4 -0.0037,0.0033 -0.0037,0.0041 -1.77e-4,7.18e-4 1.82e-4,0.0033 0,0.0041 -10e-4,0.003 -0.0036,0.0094 -0.004,0.01233 -8.9e-5,7.16e-4 5.3e-5,0.0034 0,0.0041 -3.6e-5,7.17e-4 6e-6,0.0034 0,0.0041 1.4e-5,7.15e-4 -4.6e-5,0.0034 0,0.0041 6.5e-5,7.15e-4 -9.7e-5,0.0034 0,0.0041 3.6e-4,0.0021 0.0034,0.0061 0.004,0.0082 1.82e-4,7.16e-4 -1.77e-4,0.0034 0,0.0041 5.35e-4,0.0019 0.0032,0.0062 0.0037,0.0082 5.36e-4,0.0014 0.0032,0.0029 0.0037,0.0041 0.03522,0.05099 0.14753,0.08637 0.312217,0.08637 0.763381,0 2.805957,-1.212629 2.805963,-1.665639 0,-0.185802 -0.02268,-0.343272 -0.05205,-0.394816 -0.0017,-0.0027 -0.0062,-0.0061 -0.008,-0.0082 -0.001,-0.001 -0.0026,-0.0033 -0.0037,-0.0041 -5.36e-4,-3.7e-4 -0.0032,-0.0039 -0.0037,-0.0041 -3.59e-4,-5.2e-5 -0.0037,3.2e-5 -0.0037,0 -0.0017,8.3e-5 -0.0076,-9.58e-4 -0.012,0 z m -6.928844,0.666258 c -0.130819,0.02785 -0.444246,0.4986 -0.82458,1.262596 -0.07811,0.156922 -0.120956,0.259484 -0.128089,0.30434 -1.8e-4,0.0019 8.9e-5,0.0066 0,0.0082 -6e-6,0.0017 -1.59e-4,0.0069 0,0.0082 1.62e-4,5.5e-4 -1.8e-4,0.0036 0,0.0041 3.6e-4,3.71e-4 0.0037,0.0039 0.004,0.0041 5.36e-4,1.17e-4 0.0035,-5.7e-5 0.004,0 5.36e-4,-6e-6 0.0034,7e-5 0.004,0 5.37e-4,-1.31e-4 0.0033,1.86e-4 0.004,0 0.0022,-7.16e-4 0.0055,-0.0027 0.008,-0.0041 0.0026,-0.0014 0.009,-0.0061 0.01201,-0.0082 0.05902,-0.04216 0.187755,-0.182378 0.392274,-0.423611 0.327153,-0.38588 0.590843,-0.854301 0.588411,-1.040509 -5.36e-4,-0.04155 -0.0055,-0.07168 -0.01602,-0.09049 -10e-4,-0.0018 -0.0029,-0.0067 -0.004,-0.0082 -3.6e-4,-5.52e-4 -0.0036,-0.0036 -0.004,-0.0041 -3.61e-4,-3.72e-4 -0.0035,-0.0037 -0.004,-0.0041 -0.0014,-9.58e-4 -0.0065,-0.0033 -0.008,-0.0041 -5.35e-4,-1.85e-4 -0.0035,1.86e-4 -0.004,0 -5.37e-4,-1.63e-4 -0.0034,-0.004 -0.004,-0.0041 -5.36e-4,-9.4e-5 -0.0034,6.4e-5 -0.004,0 -5.36e-4,-4.5e-5 -0.0033,2e-5 -0.004,0 -5.37e-4,1e-6 -0.0033,-2.6e-5 -0.004,0 -6.97e-4,4.9e-5 -0.0033,-7.5e-5 -0.004,0 -0.0012,1.83e-4 -0.0026,-3.72e-4 -0.004,0 z m 14.338029,0.818423 c -0.0026,0.0014 -0.0053,0.006 -0.008,0.0082 -0.0017,0.0017 -0.0062,0.0061 -0.008,0.0082 -0.04439,0.05666 -0.08007,0.228507 -0.08007,0.427722 0,0.245183 0.214221,0.444167 0.472331,0.444171 0.16215,0 0.260089,-0.01356 0.296205,-0.05757 0.001,-0.0017 0.0026,-0.0065 0.0037,-0.0082 0.001,-0.0018 0.0032,-0.0065 0.0037,-0.0082 10e-4,-0.003 0.0032,-0.0093 0.0037,-0.01233 0.01325,-0.06619 -0.05498,-0.178109 -0.200137,-0.357804 -0.194951,-0.241349 -0.404597,-0.438032 -0.468328,-0.444171 -5.36e-4,0 -0.0037,-2.5e-5 -0.0037,0 -5.36e-4,7.2e-5 -0.0037,-9.6e-5 -0.0037,0 -5.35e-4,1.47e-4 -0.0037,-1.66e-4 -0.0037,0 -0.001,3.72e-4 -0.0032,-5.5e-4 -0.0037,0 z m 2.82197,1.032289 c 0.0017,-3.73e-4 0.0062,1.63e-4 0.008,0 0.0017,-1.02e-4 0.0062,-2.8e-5 0.008,0 0.0017,8.6e-5 0.0063,-1.88e-4 0.008,0 0.0032,5.5e-4 0.009,0.003 0.012,0.0041 0.0022,9.59e-4 0.0058,0.003 0.008,0.0041 0.0037,0.0021 0.0088,0.0054 0.012,0.0082 5.36e-4,5.51e-4 0.0032,0.0035 0.0037,0.0041 5.35e-4,7.16e-4 0.0032,0.0034 0.0037,0.0041 5.36e-4,7.16e-4 0.0032,0.0033 0.0037,0.0041 0.0022,0.003 0.006,0.0088 0.008,0.01233 0.001,0.0018 0.0032,0.0065 0.0037,0.0082 0.001,0.003 0.0026,0.0092 0.0037,0.01233 0.02643,0.07474 0.02085,0.214356 -0.02401,0.390706 -0.09245,0.36323 -0.191861,0.55859 -0.26418,0.575778 -0.0043,7.14e-4 -0.01196,5.49e-4 -0.01602,0 -0.006,-0.0014 -0.01441,-0.004 -0.01999,-0.0082 -0.0017,-0.0017 -0.0062,-0.0062 -0.008,-0.0082 -0.0392,-0.04671 -0.06404,-0.178569 -0.06404,-0.394818 0,-0.235534 0.11593,-0.50063 0.260179,-0.592229 0.01013,-0.0065 0.02284,-0.01277 0.03201,-0.01645 0.0032,-0.001 0.0091,-0.0033 0.012,-0.0041 0.0022,-5.51e-4 0.006,-0.0037 0.008,-0.0041 z m 1.765235,1.719105 c -0.04921,0.0077 -0.08781,0.03615 -0.112074,0.07813 -0.05982,0.109238 -0.03657,0.332615 0.08406,0.662143 0.172818,0.472153 0.482591,0.66626 1.048739,0.666256 l 0.800555,0 -0.804561,-0.76496 c -0.480061,-0.457365 -0.832437,-0.670191 -1.016712,-0.641585 z m -2.533771,0.514087 c -10e-4,6.1e-5 -0.0026,0.004 -0.0037,0.0041 -0.01293,0.0024 -0.02847,0.0099 -0.04006,0.02057 -0.0022,0.0018 -0.0062,0.0061 -0.008,0.0082 -0.04122,0.04938 -0.07205,0.152399 -0.07205,0.267328 0,0.163451 0.139737,0.296114 0.308219,0.296111 0.16847,0 0.226405,-0.132658 0.128086,-0.296111 -0.0891,-0.148133 -0.213974,-0.274219 -0.2882,-0.296118 -0.0062,-0.0014 -0.01453,-0.0041 -0.01999,-0.0041 -10e-4,0 -0.0026,-6.8e-5 -0.0037,0 z m -16.383461,0.209747 c -0.120826,0.0065 -0.197254,0.04855 -0.228156,0.111043 -0.08383,0.182782 0.205558,0.568171 0.868605,0.970593 0.476114,0.288972 0.998984,0.783834 1.164817,1.102201 0.347312,0.66678 0.8606,0.769563 0.8606,0.172735 0,-0.68129 -1.102136,-1.891597 -2.021411,-2.220853 -0.281157,-0.100704 -0.497041,-0.143511 -0.644455,-0.135719 z m 16.923838,1.093974 c -5.37e-4,3.71e-4 -0.0032,0.0039 -0.0037,0.0041 -0.0017,0.0014 -0.0065,0.0025 -0.008,0.0041 -5.37e-4,5.5e-4 5.35e-4,0.0035 0,0.0041 -10e-4,0.001 -0.0032,0.0029 -0.0037,0.0041 -3.59e-4,7.16e-4 -0.0037,0.0034 -0.0037,0.0041 -5.36e-4,0.0014 -0.0032,0.0066 -0.0037,0.0082 -3.59e-4,9.58e-4 3.64e-4,0.0032 0,0.0041 -10e-4,0.0027 -0.0032,0.0094 -0.0037,0.01233 -5.35e-4,0.0031 -0.0037,0.009 -0.0037,0.01233 -0.01614,0.122627 0.07434,0.407401 0.224148,0.695045 0.200332,0.384602 0.349826,0.582944 0.420299,0.604565 5.36e-4,1.64e-4 0.0032,-1.35e-4 0.0037,0 5.36e-4,1.11e-4 0.0032,-8.2e-5 0.0037,0 5.35e-4,2.8e-5 0.0032,-1e-6 0.0037,0 5.37e-4,-2.6e-5 0.0032,5.6e-5 0.0037,0 5.36e-4,-1.07e-4 0.0037,1.35e-4 0.0037,0 3.67e-4,-1.84e-4 0.0037,-0.004 0.0037,-0.0041 3.58e-4,-1.84e-4 0.0037,3.72e-4 0.0037,0 5.37e-4,-7.14e-4 0.0032,-0.0033 0.0037,-0.0041 3.64e-4,-3.71e-4 -3.59e-4,-0.0036 0,-0.0041 3.64e-4,-5.5e-4 0.0037,-0.0036 0.0037,-0.0041 1.76e-4,-5.51e-4 -1.83e-4,-0.0035 0,-0.0041 0.02637,-0.06994 -0.03222,-0.310617 -0.208147,-0.707384 -0.140396,-0.316588 -0.295234,-0.5567 -0.388273,-0.616901 -0.0017,-10e-4 -0.0062,-0.0031 -0.008,-0.0041 -0.0017,-9.6e-4 -0.0062,-0.0033 -0.008,-0.0041 -0.0017,-7.16e-4 -0.0062,-0.0036 -0.008,-0.0041 -5.36e-4,-1.86e-4 -0.0032,1.87e-4 -0.0037,0 -5.36e-4,-1.56e-4 -0.0032,1.15e-4 -0.0037,0 -0.0017,-1.56e-4 -0.0066,-10e-7 -0.008,0 -5.37e-4,4.1e-5 -0.0032,-7.7e-5 -0.0037,0 -5.36e-4,1.2e-4 -0.0032,-1.61e-4 -0.0037,0 -5.36e-4,1.87e-4 -0.0032,-1.86e-4 -0.0037,0 z m -20.89061,0.777295 c -0.300781,0.03213 -0.985734,1.068635 -1.272892,1.932965 -0.04326,0.130202 -0.05318,0.208746 -0.02802,0.234423 6.97e-4,5.51e-4 0.0032,0.0036 0.004,0.0041 0.0014,9.6e-4 0.0062,0.0034 0.008,0.0041 0.0018,5.49e-4 0.0059,-1.86e-4 0.008,0 0.08125,0.0036 0.304122,-0.197002 0.680475,-0.616903 0.650538,-0.725804 0.943484,-1.241092 0.844589,-1.451781 -0.0037,-0.0075 -0.01121,-0.01791 -0.01602,-0.02467 -0.0084,-0.01138 -0.02046,-0.02391 -0.03201,-0.03289 -0.01084,-0.008 -0.02658,-0.01868 -0.04004,-0.02466 -0.03731,-0.01581 -0.08721,-0.02468 -0.1441,-0.02468 -0.001,0 -0.0029,-3.1e-5 -0.004,0 -0.0024,1.27e-4 -0.0056,-1.87e-4 -0.008,0 z m 24.224944,0.03703 c -0.05494,0.0039 -0.102866,0.02344 -0.140101,0.06169 -0.08488,0.08722 -0.06884,0.302742 0.03603,0.477073 0.235654,0.391764 0.732512,0.416817 0.732512,0.03703 0,-0.287635 -0.377642,-0.59329 -0.628441,-0.575773 z m -13.717594,0.01645 c 5.37e-4,-1.12e-4 0.0032,8.7e-5 0.0037,0 5.36e-4,-5.6e-5 0.0032,2.6e-5 0.0037,0 5.36e-4,6e-6 0.0032,-3.3e-5 0.0037,0 5.37e-4,6.6e-5 0.0032,-9.6e-5 0.0037,0 0.0022,3.7e-4 0.0059,0.0034 0.008,0.0041 5.36e-4,1.86e-4 0.0032,-3.7e-4 0.0037,0 5.35e-4,3.7e-4 0.0032,0.0037 0.0037,0.0041 0.0043,0.0023 0.01163,0.0048 0.01602,0.0082 5.36e-4,5.5e-4 0.0032,0.0034 0.0037,0.0041 0.0022,0.0021 0.0056,0.0057 0.008,0.0082 0.09612,0.09875 0.107577,0.353014 0.02401,0.567551 -0.02526,0.06482 -0.05098,0.108001 -0.07205,0.127494 -5.36e-4,5.52e-4 -0.0032,0.0036 -0.0037,0.0041 -5.36e-4,3.71e-4 -0.0032,0.0037 -0.0037,0.0041 -5.35e-4,3.7e-4 -0.0032,-3.72e-4 -0.0037,0 -5.36e-4,1.85e-4 -0.0032,0.0039 -0.0037,0.0041 -5.37e-4,1.58e-4 -0.0032,-1.2e-4 -0.0037,0 -5.37e-4,8.6e-5 -0.0032,-5e-5 -0.0037,0 -5.37e-4,1.3e-5 -0.0032,2.3e-5 -0.0037,0 -5.35e-4,-9.4e-5 -0.0037,1.3e-4 -0.0037,0 -0.0017,-5.51e-4 -0.0066,-0.0032 -0.008,-0.0041 -5.37e-4,-3.72e-4 -0.0037,-0.0037 -0.0037,-0.0041 -5.36e-4,-5.5e-4 -0.0037,-0.0036 -0.0037,-0.0041 -0.001,-10e-4 -0.0032,-0.0029 -0.0037,-0.0041 -3.66e-4,-7.17e-4 -0.0037,-0.0034 -0.0037,-0.0041 -0.02514,-0.04199 -0.04188,-0.141941 -0.04804,-0.29611 -0.0078,-0.19581 0.01764,-0.339969 0.06005,-0.39482 0.0022,-0.0027 0.0058,-0.0061 0.008,-0.0082 5.34e-4,-5.5e-4 0.0032,-0.0036 0.0037,-0.0041 5.37e-4,-3.7e-4 0.0032,-0.0037 0.0037,-0.0041 0.0017,-10e-4 0.0062,-0.0032 0.008,-0.0041 5.35e-4,-1.85e-4 0.0032,1.85e-4 0.0037,0 5.36e-4,-1.72e-4 0.0032,-0.004 0.0037,-0.0041 z m -6.600618,1.135105 c -0.225381,0.01225 -0.721505,0.277759 -1.120786,0.600451 -0.392889,0.317535 -0.817272,0.565112 -0.964672,0.563439 -0.0047,-1.86e-4 -0.01197,-0.0034 -0.01602,-0.0041 -0.129625,-0.0229 -0.655784,-0.02348 -1.172817,-0.0041 -0.794483,0.02974 -0.940657,0.14775 -0.940657,0.760849 0,0.358468 -0.09576,0.717659 -0.216153,0.851325 -0.0094,0.01024 -0.02226,0.02152 -0.03201,0.02879 -0.0022,0.0014 -0.0058,0.0069 -0.008,0.0082 -0.006,0.0039 -0.01389,0.0075 -0.02002,0.01233 -0.270391,0.221977 -0.515949,1.336746 -0.384266,1.59161 0.0055,0.01013 0.01322,0.02172 0.02001,0.02879 6.95e-4,7.17e-4 0.0032,0.0034 0.004,0.0041 0.0063,0.0053 0.01656,0.0095 0.02402,0.01232 0.002,5.51e-4 0.0059,0.0037 0.008,0.0041 0.004,7.17e-4 0.01173,0 0.01602,0 0.0018,-8e-5 0.006,1.85e-4 0.008,0 0.004,-5.52e-4 0.01151,-0.0029 0.01601,-0.0041 0.137653,-0.04263 0.504451,-0.359527 0.852594,-0.740284 0.670277,-0.733067 0.691339,-0.733521 1.280895,-0.180959 0.329378,0.308707 0.987764,0.765004 1.465028,1.015835 1.21994,0.641151 2.930867,2.533497 3.454412,3.824802 0.391301,0.965113 0.391008,1.212364 0.01602,2.134488 -0.309819,0.761859 -0.629185,1.070212 -1.18483,1.139214 -0.610597,0.07583 -0.986902,0.518963 -1.913337,2.253756 -0.907346,1.699053 -1.084378,2.25207 -0.820574,2.578656 0.262451,0.32492 0.224353,0.483793 -0.184129,0.727948 -0.211902,0.126658 -0.335518,0.201255 -0.368257,0.246762 -5.36e-4,7.15e-4 -0.0035,0.0033 -0.004,0.0041 -9.33e-4,0.0014 -0.0034,0.0068 -0.004,0.0082 -1.81e-4,7.17e-4 1.78e-4,0.0034 0,0.0041 -1.11e-4,7.14e-4 5.4e-5,0.0034 0,0.0041 1.1e-5,7.16e-4 -6.5e-5,0.0034 0,0.0041 1.36e-4,5.51e-4 -1.81e-4,0.0035 0,0.0041 3.6e-4,5.51e-4 0.0036,0.0036 0.004,0.0041 9.34e-4,10e-4 0.0029,0.0031 0.004,0.0041 5.37e-4,5.52e-4 0.0033,0.0036 0.004,0.0041 0.0014,9.58e-4 0.0062,0.0032 0.008,0.0041 0.04575,0.02032 0.166272,0.02546 0.360254,0.02879 0.580021,0.01003 1.352945,-0.658982 1.352945,-1.168005 0,-0.562047 1.339476,-2.492793 2.573803,-3.713763 1.007436,-0.996536 1.184824,-1.358981 1.184827,-2.381248 0,-0.718249 -0.293328,-1.771618 -0.728508,-2.61156 -0.379822,-0.733072 -0.519237,-1.228082 -0.460322,-1.373637 0.0014,-0.0033 0.0062,-0.0094 0.008,-0.01233 10e-4,-0.0018 0.0028,-0.0066 0.004,-0.0082 6.96e-4,-7.18e-4 0.0033,-0.0033 0.004,-0.0041 6.97e-4,-7.15e-4 0.0032,-0.0034 0.004,-0.0041 0.0014,-0.0014 0.0063,-0.003 0.008,-0.0041 0.0017,-9.6e-4 0.0062,-0.0033 0.008,-0.0041 0.0018,-7.17e-4 0.006,-0.0036 0.008,-0.0041 0.002,-3.72e-4 0.0059,3.71e-4 0.008,0 0.0051,-5.5e-4 0.01429,-5.5e-4 0.02001,0 0.114558,0.0169 0.339601,0.251639 0.65646,0.748511 0.260599,0.408636 0.625415,0.740283 0.80857,0.740285 0.01145,0 0.02302,-0.0017 0.03201,-0.0041 0.0044,-0.0012 0.01227,-0.0022 0.01602,-0.0041 0.01351,-0.0077 0.02273,-0.02203 0.02802,-0.03702 0.0017,-0.0051 0.0033,-0.01464 0.004,-0.02056 0.0096,-0.111456 -0.127643,-0.349111 -0.376266,-0.621021 -0.345905,-0.378308 -0.628438,-0.827638 -0.628437,-0.999381 0,-0.171737 -0.277852,-0.676405 -0.616431,-1.118651 -0.515968,-0.673958 -0.561733,-0.921332 -0.288201,-1.538149 0.247703,-0.55858 0.341648,-0.971054 0.296207,-1.122766 -0.002,-0.0065 -0.0054,-0.01511 -0.008,-0.02057 -0.0018,-0.0035 -0.0059,-0.0093 -0.008,-0.01233 -5.37e-4,-7.15e-4 -0.0035,-0.0034 -0.004,-0.0041 -0.0032,-0.0041 -0.0081,-0.0093 -0.012,-0.01233 -6.98e-4,-5.51e-4 -0.0033,-0.0036 -0.004,-0.0041 -0.002,-0.0014 -0.0058,-0.0031 -0.008,-0.0041 -6.97e-4,-3.72e-4 -0.0032,3.7e-4 -0.004,0 -0.0014,-5.51e-4 -0.0063,-0.0037 -0.008,-0.0041 -6.96e-4,-1.58e-4 -0.0031,1.26e-4 -0.004,0 -0.0017,-1.84e-4 -0.0062,7.5e-5 -0.008,0 -0.0018,-1.4e-5 -0.0062,-1.06e-4 -0.008,0 -0.0018,1.68e-4 -0.006,-3.69e-4 -0.008,0 -0.0029,5.52e-4 -0.009,0.0033 -0.012,0.0041 -0.0041,0.001 -0.01171,0.0025 -0.01602,0.0041 -0.07075,0.02966 -0.171712,0.125671 -0.300212,0.300225 -0.23357,0.317287 -0.431009,0.852034 -0.436303,1.188568 -0.004,0.252985 -0.0073,0.403565 -0.04403,0.448282 -6.96e-4,7.17e-4 -0.0032,0.0034 -0.004,0.0041 -6.98e-4,5.51e-4 -0.0032,0.0036 -0.004,0.0041 -0.0017,9.58e-4 -0.0062,0.0034 -0.008,0.0041 -0.0018,5.51e-4 -0.006,-1.85e-4 -0.008,0 -0.004,1.39e-4 -0.01157,10e-4 -0.01602,0 -0.06753,-0.01967 -0.191746,-0.166433 -0.420296,-0.440055 -0.273109,-0.326979 -0.855409,-0.833023 -1.2929,-1.122766 -1.016243,-0.67305 -1.002099,-0.983889 0.07205,-1.5546 0.553355,-0.294007 0.861539,-0.619552 0.860603,-0.826648 -3.61e-4,-0.01441 -5.35e-4,-0.03205 -0.004,-0.04525 -0.0017,-0.006 -0.0056,-0.01489 -0.008,-0.02056 -0.002,-0.0045 -0.0056,-0.01214 -0.008,-0.01645 -0.0044,-0.0074 -0.01033,-0.01776 -0.01602,-0.02468 -0.005,-0.0057 -0.01407,-0.01515 -0.02002,-0.02056 -0.0041,-0.0036 -0.01152,-0.009 -0.016,-0.01232 -0.0632,-0.04541 -0.169194,-0.07401 -0.316222,-0.07401 -0.005,0 -0.0106,-3.71e-4 -0.01602,0 z m 20.690471,0.304331 c -0.179235,7.14e-4 -0.404419,0.170731 -0.520365,0.481183 -0.109352,0.292792 0.0178,0.639453 0.316224,0.863667 0.238526,0.179199 0.340007,0.383771 0.268188,0.501743 -0.01238,0.01922 -0.0298,0.03937 -0.05205,0.05347 -0.154522,0.09812 -0.243728,0.509193 -0.200139,0.917131 0.05965,0.558378 -0.05993,0.744392 -0.472332,0.744394 -0.301291,0 -0.620923,0.198987 -0.712497,0.444172 -0.238887,0.639618 -0.684484,0.552202 -0.684478,-0.135718 0,-0.321161 -0.269015,-0.734902 -0.60042,-0.917129 -0.478404,-0.26307 -0.715072,-0.227235 -1.1408,0.168617 -0.294918,0.274225 -0.671472,0.407619 -0.840587,0.300228 -0.03963,-0.02516 -0.08122,-0.03816 -0.116085,-0.04113 -0.0069,-3.71e-4 -0.01737,-3.71e-4 -0.02401,0 -0.0043,3.7e-4 -0.01169,0.0034 -0.01599,0.0041 -0.0043,7.17e-4 -0.01191,0.003 -0.01604,0.0041 -0.0072,0.0022 -0.01731,0.0049 -0.02402,0.0082 -0.0022,9.59e-4 -0.0062,0.003 -0.008,0.0041 -0.0017,0.001 -0.0062,0.003 -0.008,0.0041 -0.0043,0.0031 -0.01184,0.0086 -0.01602,0.01233 -0.0032,0.003 -0.0088,0.009 -0.012,0.01233 -0.04256,0.04626 -0.06805,0.125301 -0.06805,0.226196 0,0.234811 -0.18241,0.579878 -0.404286,0.769073 -0.221876,0.1892 -0.470884,0.774111 -0.552385,1.299612 -0.0815,0.525501 -0.303657,1.493005 -0.492344,2.146827 -0.188691,0.653821 -0.410198,1.619706 -0.492344,2.150937 -0.06738,0.435772 -0.07122,0.810285 -0.01999,0.929466 0.0032,0.0066 0.0086,0.01571 0.012,0.02057 0.0022,0.003 0.0056,0.006 0.008,0.0082 5.36e-4,5.5e-4 0.0032,0.0036 0.0037,0.0041 0.0022,0.0014 0.0059,0.0033 0.008,0.0041 5.36e-4,1.84e-4 0.0032,-1.58e-4 0.0037,0 5.37e-4,1.03e-4 0.0032,-5.3e-5 0.0037,0 0.0056,0 0.0141,0.0014 0.01999,0 0.299368,-0.07709 1.03272,-1.730078 1.032726,-2.352461 0,-0.962351 1.327648,-3.777669 1.88532,-3.997536 0.338142,-0.133324 0.643005,-0.0031 0.908631,0.386592 0.320152,0.469628 0.684338,0.57202 1.809267,0.514087 0.774353,-0.03989 1.607782,-0.238228 1.849295,-0.44417 0.296484,-0.252814 0.497871,-0.272099 0.624436,-0.06169 0.23173,0.385241 1.794593,0.409983 2.021411,0.03291 0.24226,-0.402747 -1.095935,-1.887935 -1.745219,-1.937079 -0.70116,-0.05307 -0.786552,-0.183972 -0.540377,-0.843103 0.119822,-0.320815 0.01506,-0.743607 -0.268189,-1.065187 -0.257922,-0.292828 -0.47233,-0.688666 -0.47233,-0.880117 0,-0.232433 -0.112285,-0.341909 -0.256181,-0.341352 z m -17.8725,0.682691 c -0.0017,5.49e-4 -0.0063,0.0034 -0.008,0.0041 -0.0062,0.0032 -0.01458,0.0094 -0.02001,0.01645 -0.0026,0.0039 -0.0055,0.01171 -0.008,0.01645 -0.03493,0.0724 -0.05047,0.250184 -0.05204,0.538765 -0.0022,0.396824 0.09932,0.729346 0.23216,0.801972 0.01181,0.006 0.02776,0.01063 0.04004,0.01233 0.0037,3.7e-4 0.0082,0 0.012,0 0.365732,0 0.365728,-0.6071 0,-1.188568 -0.06657,-0.105841 -0.11971,-0.170726 -0.16011,-0.193295 -0.003,-0.0014 -0.0091,-0.003 -0.01201,-0.0041 -0.002,-5.5e-4 -0.006,-0.0037 -0.008,-0.0041 -0.0018,-1.84e-4 -0.0062,6e-6 -0.008,0 -0.0018,1.18e-4 -0.0062,-3.69e-4 -0.008,0 z m 22.343633,0.818429 c -10e-4,5.9e-5 -0.0032,0.004 -0.0037,0.0041 -0.001,1.2e-4 -0.0032,-1.52e-4 -0.0037,0 -0.0017,3.69e-4 -0.0062,-5.52e-4 -0.008,0 -0.0017,5.51e-4 -0.0062,0.0034 -0.008,0.0041 -0.0017,7.18e-4 -0.0062,0.0032 -0.008,0.0041 -0.110412,0.05382 -0.285885,0.318893 -0.472327,0.785522 -0.431163,1.07915 -0.524218,1.616349 -0.336235,1.928854 0.0026,0.0044 0.0048,0.01215 0.008,0.01645 0.101164,0.130664 0.438997,0.200422 0.768536,0.152171 0.49386,-0.07229 0.630596,-0.311243 0.660467,-1.135105 0.01378,-0.379904 0.001,-0.639299 -0.032,-0.711494 -3.59e-4,-7.16e-4 -0.0037,-0.0033 -0.0037,-0.0041 -0.001,-0.0021 -0.0026,-0.0067 -0.0037,-0.0082 -0.001,-9.59e-4 -0.0032,-0.0033 -0.0037,-0.0041 -3.59e-4,-3.7e-4 -0.0037,1.85e-4 -0.0037,0 -10e-4,-3.7e-4 -0.0032,-0.004 -0.0037,-0.0041 -5.36e-4,1.2e-5 -0.0037,-6.5e-5 -0.0037,0 -0.001,1.86e-4 -0.0032,0.0036 -0.0037,0.0041 -0.0017,10e-4 -0.0065,0.0026 -0.008,0.0041 -0.0022,0.0024 -0.0059,0.0091 -0.008,0.01233 -0.0063,0.01045 -0.01308,0.02608 -0.01999,0.04525 -0.07744,0.214445 -0.172509,0.331697 -0.26018,0.370142 -0.0055,0.0024 -0.01453,0.0066 -0.02,0.0082 -0.0043,0.0014 -0.01169,0.0032 -0.01602,0.0041 -0.0043,7.16e-4 -0.01174,-3.72e-4 -0.01604,0 -0.0043,1.84e-4 -0.01184,1.26e-4 -0.01602,0 -0.0043,-1.86e-4 -0.01191,5.51e-4 -0.01602,0 -0.01024,-0.0017 -0.0223,-0.0041 -0.032,-0.0082 -0.0058,-0.0026 -0.01441,-0.0088 -0.01999,-0.01233 -0.121897,-0.07744 -0.190092,-0.347158 -0.09606,-0.732057 0.08563,-0.350552 0.09738,-0.575417 0.06005,-0.670369 -0.001,-0.0021 -0.0032,-0.0062 -0.0037,-0.0082 -10e-4,-0.0018 -0.0032,-0.0065 -0.0037,-0.0082 -0.0021,-0.0033 -0.0058,-0.0094 -0.008,-0.01232 -5.37e-4,-7.16e-4 -0.0032,-0.0034 -0.0037,-0.0041 -0.0026,-0.0031 -0.0088,-0.0057 -0.012,-0.0082 -5.36e-4,-3.72e-4 -0.0032,-0.0037 -0.0037,-0.0041 -5.36e-4,-3.71e-4 -0.0032,3.72e-4 -0.0037,0 -5.36e-4,-3.71e-4 -0.0032,-0.0039 -0.0037,-0.0041 -5.37e-4,-1.85e-4 -0.0032,1.87e-4 -0.0037,0 -5.35e-4,-1.85e-4 -0.0032,1.55e-4 -0.0037,0 -0.0032,-5.5e-4 -0.0088,-0.0041 -0.012,-0.0041 -5.34e-4,3.1e-5 -0.0032,-5.8e-5 -0.0037,0 z m -30.609415,0.115157 c -6.96e-4,9.2e-5 -0.0032,0.004 -0.004,0.0041 -6.96e-4,1.86e-4 -0.0032,-1.85e-4 -0.004,0 -6.97e-4,3.71e-4 -0.0032,-3.7e-4 -0.004,0 -0.0017,7.15e-4 -0.0063,0.0032 -0.008,0.0041 -0.0042,0.0026 -0.01149,0.0086 -0.01601,0.01234 -0.09144,0.07669 -0.245322,0.366174 -0.38427,0.744395 -0.1459,0.397135 -0.190843,0.7386 -0.124086,0.847216 0.0098,0.01489 0.02555,0.02793 0.04002,0.03289 0.0029,9.59e-4 0.0088,-3.71e-4 0.01201,0 0.0022,1.84e-4 0.0058,0 0.008,0 0.0022,0 0.0059,1.75e-4 0.008,0 0.01187,-0.0014 0.02763,-0.006 0.04004,-0.01233 0.0056,-0.003 0.01428,-0.0083 0.02001,-0.01233 0.270489,-0.19831 0.629785,-1.417492 0.440306,-1.612178 -0.0017,-0.0014 -0.0062,-0.0031 -0.008,-0.0041 -5.35e-4,-3.71e-4 -0.0033,1.86e-4 -0.004,0 -5.36e-4,-1.87e-4 -0.0033,-0.004 -0.004,-0.0041 -0.0014,-9.2e-5 -0.0066,-1.03e-4 -0.008,0 z m 2.813969,0.542872 c 0.398143,-0.03667 2.961062,1.316592 3.198236,1.710881 0.09839,0.163578 0.141565,0.336435 0.104078,0.39893 -0.0028,0.004 -0.0085,0.0094 -0.012,0.01233 -6.97e-4,5.5e-4 -0.0031,0.0037 -0.004,0.0041 -0.230908,0.08687 -3.30057,-1.84691 -3.334333,-2.093362 -7.2e-5,-0.0018 -3.61e-4,-0.0066 0,-0.0082 3.6e-4,-7.18e-4 0.0036,-0.0034 0.004,-0.0041 5.36e-4,-7.15e-4 -5.36e-4,-0.0035 0,-0.0041 0.0014,-0.0014 0.0062,-0.0029 0.008,-0.0041 0.0085,-0.0051 0.02134,-0.01098 0.03602,-0.01233 z m 21.471018,0.287891 c -0.0431,0.0046 -0.08258,0.01889 -0.112079,0.03703 -0.0032,0.0019 -0.0092,0.0061 -0.012,0.0082 -0.0048,0.0036 -0.01191,0.0083 -0.01604,0.01233 -5.36e-4,5.51e-4 -0.0032,0.0034 -0.0037,0.0041 -0.0048,0.0054 -0.0087,0.01372 -0.012,0.02056 -5.36e-4,0.0017 -0.0032,0.0065 -0.0037,0.0082 -10e-4,0.0029 -0.0032,0.0093 -0.0037,0.01233 -0.02658,0.111914 0.07247,0.342664 0.244171,0.555215 0.35577,0.440449 0.872608,0.367367 0.872608,-0.123381 0,-0.0057 5.35e-4,-0.01467 0,-0.02056 -0.03356,-0.247843 -0.640701,-0.547278 -0.952666,-0.514088 z m -15.963167,0.316674 c -0.04374,3.7e-4 -0.09342,0.01873 -0.148103,0.05348 -0.15909,0.101017 -0.288206,0.317723 -0.288202,0.481183 0,0.163453 0.129111,0.216173 0.288202,0.115156 0.159087,-0.101017 0.2882,-0.317726 0.288201,-0.481188 0,-0.107267 -0.0566,-0.16937 -0.140098,-0.16862 z m -12.112471,0.871891 c -0.118489,0.0022 -0.257556,0.02691 -0.424298,0.06991 -0.856994,0.220995 -1.497042,0.684838 -1.497046,1.081639 0,0.100872 0.02097,0.17104 0.06404,0.209745 0.103983,0.0868 0.34926,0.0023 0.82458,-0.259098 0.391743,-0.215409 0.738404,-0.207593 1.16081,0.02467 0.318317,0.175037 0.543023,0.240729 0.664466,0.201521 0.0056,-0.0019 0.01478,-0.0057 0.02002,-0.0082 0.0062,-0.003 0.0145,-0.0085 0.02001,-0.01233 0.0018,-0.0014 0.0062,-0.0027 0.008,-0.0041 0.0033,-0.0027 0.009,-0.0093 0.012,-0.01233 0.003,-0.0032 0.0093,-0.0088 0.01201,-0.01233 0.0014,-0.0018 0.0028,-0.0065 0.004,-0.0082 0.0036,-0.0056 0.0091,-0.01423 0.012,-0.02056 0.0019,-0.0043 0.0063,-0.01184 0.008,-0.01645 0.04229,-0.127433 -0.02361,-0.369027 -0.204147,-0.715611 -0.193576,-0.371633 -0.369639,-0.523847 -0.684477,-0.518196 z m 30.481324,0.01645 c 0.07397,-0.0029 0.133127,0.0083 0.176122,0.0288 0.01254,0.0062 0.02627,0.01652 0.03602,0.02467 0.0032,0.003 0.0088,0.0091 0.012,0.01232 0.0032,0.0033 0.0093,0.0087 0.012,0.01233 0.001,0.0018 0.0026,0.0065 0.0037,0.0082 0.0032,0.0057 0.0094,0.0143 0.012,0.02056 0.0017,0.0042 0.0026,0.01199 0.0037,0.01645 0.0017,0.0068 0.0032,0.0174 0.0037,0.02467 0.01651,0.154862 -0.147929,0.421206 -0.504353,0.75262 -0.58953,0.548167 -0.814468,0.604516 -1.024716,0.254987 -0.220028,-0.365788 0.181611,-0.846975 0.900633,-1.077527 0.147435,-0.04728 0.272285,-0.07446 0.368255,-0.07813 z m 1.028716,0.230313 c 0.127461,-0.02192 0.432598,0.124101 0.828579,0.431831 0.224738,0.174652 0.344098,0.28416 0.36025,0.349582 3.66e-4,0.0021 -1.77e-4,0.0062 0,0.0082 1.12e-4,0.0018 9.1e-5,0.0065 0,0.0082 -1.77e-4,0.0017 3.66e-4,0.0066 0,0.0082 -0.0017,0.0048 -0.0048,0.01224 -0.008,0.01645 -5.35e-4,7.16e-4 -0.0032,0.0034 -0.0037,0.0041 -5.36e-4,5.5e-4 -0.0032,0.0034 -0.0037,0.0041 -0.0017,0.0014 -0.0062,0.003 -0.008,0.0041 -0.03705,0.02234 -0.114648,0.03289 -0.22816,0.03289 -0.249555,0 -0.614517,-0.2031 -0.812565,-0.448283 -0.125268,-0.15508 -0.183701,-0.267669 -0.188134,-0.337241 -8e-5,-0.0019 -6e-6,-0.0065 0,-0.0082 5.3e-5,-0.0018 -1.35e-4,-0.0065 0,-0.0082 1.82e-4,-0.0017 -1.78e-4,-0.0066 0,-0.0082 1.55e-4,-7.16e-4 -1.78e-4,-0.0033 0,-0.0041 5.37e-4,-0.0024 0.0032,-0.0061 0.0037,-0.0082 0.001,-0.0022 0.0032,-0.0062 0.0037,-0.0082 0.001,-0.0019 0.0026,-0.0065 0.0037,-0.0082 3.65e-4,-5.5e-4 0.0037,-0.0035 0.0037,-0.0041 5.36e-4,-5.52e-4 0.0032,-0.0036 0.0037,-0.0041 0.001,-9.6e-4 0.0026,-0.0032 0.0037,-0.0041 5.37e-4,-3.7e-4 0.0032,-0.0037 0.0037,-0.0041 5.37e-4,-3.71e-4 0.0032,3.71e-4 0.0037,0 5.34e-4,-3.71e-4 0.0032,-0.0037 0.0037,-0.0041 0.0026,-0.0014 0.0087,-0.0031 0.012,-0.0041 0.0043,-0.0014 0.01136,-0.0033 0.01602,-0.0041 z m -21.05473,0.571674 c 0.0028,-9.59e-4 0.0091,5.51e-4 0.012,0 0.003,-5.5e-4 0.0087,1.86e-4 0.01201,0 10e-4,-3.2e-5 0.0029,0 0.004,0 0.0056,0 0.01426,-7.16e-4 0.02001,0 0.141372,0.01928 0.328689,0.229308 0.424297,0.485298 0.112108,0.300164 0.13997,0.485998 0.104067,0.546988 -0.0014,0.0021 -0.0063,0.0065 -0.008,0.0082 -3.62e-4,3.69e-4 -0.0036,0.0037 -0.004,0.0041 -9.33e-4,7.17e-4 -0.003,0.0035 -0.004,0.0041 -5.36e-4,1.85e-4 -0.0035,-1.86e-4 -0.004,0 -5.35e-4,1.85e-4 -0.0035,0.004 -0.004,0.0041 -5.37e-4,1.62e-4 -0.0034,-1.44e-4 -0.004,0 -5.35e-4,9.6e-5 -0.0034,-8.3e-5 -0.004,0 -0.07265,0.0074 -0.225982,-0.146686 -0.424299,-0.472961 -0.131981,-0.217145 -0.191315,-0.410336 -0.172118,-0.509975 6.97e-4,-0.0033 0.0031,-0.0092 0.004,-0.01233 9.34e-4,-0.003 0.0029,-0.0095 0.004,-0.01233 9.34e-4,-0.0018 0.0031,-0.0065 0.004,-0.0082 0.002,-0.0033 0.0056,-0.0094 0.008,-0.01233 0.0024,-0.0029 0.0053,-0.0057 0.008,-0.0082 6.98e-4,-5.5e-4 0.0032,-0.0036 0.004,-0.0041 0.0014,-10e-4 0.0063,-0.0032 0.008,-0.0041 6.97e-4,-3.72e-4 0.0031,-0.0037 0.004,-0.0041 0.0026,-10e-4 0.0052,-0.0033 0.008,-0.0041 z m 6.948865,0.296112 c -0.33423,0.07957 -0.287543,2.129115 0.08405,3.224354 0.200112,0.589787 0.493593,0.926752 0.660461,0.933578 0.0058,7.8e-5 0.01453,7.17e-4 0.02,0 0.0043,-7.14e-4 0.01191,-0.0029 0.01602,-0.0041 0.0032,-10e-4 0.0092,-0.0027 0.012,-0.0041 0.0022,-9.57e-4 0.0062,-0.003 0.008,-0.0041 0.0048,-0.003 0.01184,-0.0084 0.01599,-0.01233 0.0017,-0.0017 0.0065,-0.0065 0.008,-0.0082 0.06614,-0.07718 0.07287,-0.282318 -0.032,-0.633352 -0.109894,-0.367773 -0.272258,-1.304612 -0.360257,-2.081024 -0.08661,-0.764278 -0.270205,-1.391227 -0.408279,-1.410653 -10e-4,-7.7e-5 -0.0026,0 -0.0037,0 -0.0069,0 -0.01335,-0.0017 -0.01999,0 z m -12.696882,0.99527 c -0.333517,0.008 -0.568381,0.22369 -0.67247,0.649805 -0.101227,0.414402 -0.494787,0.872361 -0.872611,1.019949 -0.547906,0.21403 -0.845975,0.440876 -0.880618,0.588113 -0.0014,0.0057 -0.0036,0.01497 -0.004,0.02057 -1.64e-4,0.0044 -3.61e-4,0.0122 0,0.01645 3.6e-4,0.0031 0.0033,0.0093 0.004,0.01233 0.0017,0.0061 0.0052,0.01492 0.008,0.02056 10e-4,0.0018 0.0029,0.0065 0.004,0.0082 0.0067,0.0099 0.01724,0.02049 0.02803,0.0288 0.005,0.0037 0.01409,0.009 0.02001,0.01233 0.106021,0.0575 0.342447,0.06708 0.712499,-0.0082 0.547164,-0.111358 0.769499,-0.142848 0.768539,-0.03703 -0.0039,0.0642 -0.08302,0.178313 -0.220158,0.349578 -0.308392,0.38516 -0.325669,0.590742 -0.07205,0.851328 0.506921,0.520837 0.40788,0.807649 -0.388274,1.118651 -0.523035,0.204321 -0.724508,0.501495 -0.724506,1.077527 0,0.348129 0.01183,0.538421 0.07205,0.596337 0.005,0.0044 0.01423,0.0096 0.02002,0.01233 0.0712,0.0278 0.198646,-0.06705 0.416288,-0.259098 0.278404,-0.245673 0.734308,-0.527795 1.012709,-0.629242 0.278403,-0.101446 0.504352,-0.391262 0.504352,-0.641579 0,-0.209244 0.09337,-0.387467 0.216152,-0.440058 0.0081,-0.0033 0.0197,-0.0061 0.02802,-0.0082 0.01194,-0.003 0.02768,-0.0036 0.04004,-0.0041 0.0014,-2.5e-5 0.0028,0 0.004,0 0.01243,0 0.02799,-0.0042 0.04002,-0.0082 0.0096,-0.0034 0.02276,-0.01062 0.03201,-0.01645 0.124516,-0.08281 0.220156,-0.374927 0.220156,-0.719719 0,-0.332018 0.08659,-0.617053 0.204141,-0.711493 0.0069,-0.0051 0.017,-0.0125 0.02402,-0.01645 0.0093,-0.0049 0.02233,-0.0097 0.03201,-0.01233 0.0084,-0.0019 0.01933,-0.0041 0.02803,-0.0041 0.15909,0 0.288201,0.124638 0.288199,0.275547 0,0.55116 1.512085,2.101587 2.049435,2.101587 0.764323,0 0.707391,0.324177 -0.492344,2.70615 -0.598863,1.188991 -1.011457,1.822701 -1.148801,1.883614 -0.0032,0.0014 -0.0092,0.0035 -0.012,0.0041 -0.0019,1.87e-4 -0.0062,6.2e-5 -0.008,0 -0.0032,-3.69e-4 -0.0093,-0.0025 -0.012,-0.0041 -6.97e-4,-5.51e-4 -0.0033,-0.0036 -0.004,-0.0041 -0.0017,-0.0018 -0.0026,-0.0056 -0.004,-0.0082 -0.04691,-0.104766 0.142317,-0.68705 0.636444,-1.760233 0.412448,-0.895783 0.705493,-1.684323 0.668468,-1.789018 -6.96e-4,-0.0014 -0.0031,-0.003 -0.004,-0.0041 -1.81e-4,-1.84e-4 1.8e-4,-0.0039 0,-0.0041 -0.0021,-0.0022 -0.0055,-0.0027 -0.008,-0.0041 -0.0026,-10e-4 -0.009,-0.0036 -0.012,-0.0041 -0.265797,-0.01872 -1.937355,2.341174 -1.937356,2.759617 0,0.07299 -0.01171,0.132696 -0.03201,0.172734 -0.05973,0.111229 -0.209411,0.0929 -0.476334,-0.05347 -0.278383,-0.152528 -1.599208,-0.420742 -2.938037,-0.596207 -1.317901,-0.172731 -2.454628,-0.372312 -2.553786,-0.444171 -6.96e-4,-5.5e-4 -0.0035,5.5e-4 -0.004,0 C 40.76764,48.324013 40.4024,46.109845 40.391726,44.709316 40.376156,42.668 40.180077,42.448973 38.48639,42.562491 c -0.898123,0.06019 -1.36289,0.218264 -1.380967,0.382482 -0.01091,0.160533 0.403446,0.330291 1.256882,0.427721 l 1.30091,0.148056 0.336233,3.121531 c 0.183905,1.716279 0.345298,3.234869 0.360254,3.376522 5.35e-4,0.0044 0.0029,0.01222 0.004,0.01645 9.34e-4,0.0031 0.0029,0.0093 0.004,0.01233 0.0014,0.003 0.0025,0.0094 0.004,0.01233 0.0036,0.0067 0.01093,0.01454 0.016,0.02056 0.0029,0.0034 0.0085,0.0092 0.012,0.01233 0.0018,0.0014 0.006,0.0068 0.008,0.0082 0.0029,0.0023 0.0088,0.0061 0.012,0.0082 0.102416,0.0659 0.323834,0.07393 0.568397,0.0082 0.559288,-0.15027 4.324323,0.182397 5.61993,0.497639 0.318175,0.07742 0.728673,0.151999 0.912642,0.164506 0.607483,0.04129 0.03475,1.27869 -0.820575,1.772572 -0.895899,0.517311 -1.444262,1.850961 -0.844593,2.056346 0.194496,0.06659 0.471566,0.439272 0.616433,0.830764 0.20499,0.553957 0.476438,0.711494 1.224857,0.711494 0.528926,0 1.107068,-0.142197 1.280897,-0.32079 0.211406,-0.217212 0.493228,-0.233359 0.852595,-0.04115 0.296214,0.158456 0.793812,0.181116 1.112779,0.04935 0.318175,-0.131435 0.662464,-0.24762 0.764534,-0.259101 0.337294,-0.03794 0.577294,1.545457 0.280195,1.850709 -0.0037,0.0039 -0.01054,0.0083 -0.01602,0.01233 -0.238458,0.163651 -1.931684,0.388308 -3.834681,0.505862 -3.190105,0.197044 -3.850535,0.148408 -6.416488,-0.481185 -1.549117,-0.380097 -2.914088,-0.633565 -3.066146,-0.571665 -5.36e-4,1.87e-4 -0.0035,-1.88e-4 -0.004,0 -0.416832,0.264684 0.06302,1.660547 0.54438,1.583385 0.458802,-0.07355 3.799079,0.54201 4.663261,0.859555 0.786712,0.289069 5.887997,0.06989 8.097666,-0.34958 3.864925,-0.73369 6.819432,-0.834751 7.885513,-0.271437 1.294814,0.684167 5.294579,4.727198 5.719997,5.782444 0.191583,0.475207 0.557043,0.867784 0.808572,0.867778 0.574734,0 2.365655,1.75577 2.365651,2.319559 5.8e-5,0.0017 -1.73e-4,0.0062 0,0.0082 0.02885,0.256307 0.958106,1.413303 2.093466,2.599221 1.099314,1.148309 2.041516,2.102618 2.161509,2.192065 0.001,5.51e-4 0.0032,0.0039 0.0037,0.0039 5.37e-4,3.75e-4 0.0032,-1.81e-4 0.0037,0 3.59e-4,2.8e-5 0.0037,1.6e-5 0.0037,0 3.65e-4,-1.37e-4 0.0037,1.83e-4 0.0037,0 3.6e-4,-3.69e-4 0.0037,-0.0039 0.0037,-0.0039 0.03463,-0.05254 0.06404,-0.366242 0.06404,-0.740285 0,-0.504928 -0.562534,-1.365392 -1.713198,-2.636238 -1.348113,-1.488906 -2.705708,-3.462664 -2.585813,-3.717869 0.0026,-0.0049 0.0079,-0.01294 0.012,-0.01646 0.0017,-0.001 0.006,-0.0033 0.008,-0.0039 0.0072,-0.0033 0.01813,-0.0039 0.02804,-0.0039 5.34e-4,8.8e-5 0.0032,-1.76e-4 0.0037,0 5.36e-4,1.88e-4 0.0032,-3.69e-4 0.0037,0 5.37e-4,3.68e-4 0.0032,0.0039 0.0037,0.0039 0.103065,0.07488 0.619825,0.782028 1.192835,1.636851 0.606155,0.90428 1.50727,1.989743 2.001399,2.410041 0.494123,0.420291 1.049136,1.117915 1.232858,1.550479 l 0.332237,0.785527 0.364255,-0.814311 c 0.344716,-0.775702 0.274793,-0.91295 -1.473031,-2.969368 -1.008763,-1.186866 -2.015499,-2.384053 -2.237569,-2.656796 -0.352295,-0.432691 -0.318071,-0.582102 0.264184,-1.180345 0.57473,-0.590502 0.676999,-1.028459 0.736518,-3.146209 0.038,-1.35242 0.198346,-2.711997 0.360255,-3.022827 0.838474,-1.609715 -1.247296,-3.623561 -4.303015,-4.153816 -1.023264,-0.17757 -1.969261,-0.431715 -2.101465,-0.567557 -0.132206,-0.135833 -0.09461,-0.678427 0.08405,-1.205016 0.178663,-0.526588 0.266914,-1.288393 0.192134,-1.690316 -0.07478,-0.40192 0.01516,-0.862903 0.204143,-1.024059 0.0017,-0.0012 0.0066,-0.0026 0.008,-0.0041 0.175476,-0.204482 -0.213799,-2.172518 -0.488346,-2.307218 -0.0043,-0.0021 -0.01163,-0.0031 -0.01602,-0.0041 -0.278403,-0.06132 -0.504353,-0.318452 -0.504353,-0.571664 0,-0.132022 -0.01184,-0.222254 -0.04006,-0.267327 -0.0065,-0.0095 -0.01565,-0.01926 -0.02401,-0.02466 -0.0017,-9.59e-4 -0.0062,-0.0033 -0.008,-0.0041 -0.0017,-7.16e-4 -0.006,-0.0035 -0.008,-0.0041 -0.0026,-7.16e-4 -0.0088,3.7e-4 -0.012,0 -0.0065,-5.5e-4 -0.01679,-9.6e-4 -0.02402,0 -0.06636,0.01093 -0.166911,0.08244 -0.316216,0.209748 -0.59145,0.504333 -0.543824,1.447911 0.132091,2.586883 0.533484,0.898968 0.53885,1.024692 0.108076,2.323672 -0.250771,0.756154 -0.641124,1.448459 -0.868607,1.538147 -0.613468,0.241869 2.643734,2.167387 3.666565,2.167387 0.548355,0 1.204853,0.33993 1.869301,0.966483 0.651,0.613862 0.975779,1.024869 0.980688,1.180345 -4e-6,0.0049 5.37e-4,0.01216 0,0.01646 -5.35e-4,0.0033 -0.0032,0.0094 -0.0037,0.01233 -0.04305,0.107842 -0.370486,-0.01145 -0.980688,-0.398932 -1.084705,-0.688788 -1.290444,-0.685048 -4.879412,0.08225 -1.193445,0.25515 -1.74835,0.523182 -1.841291,0.888346 -0.175643,0.690098 -0.389677,0.663406 -2.161508,-0.259106 -1.377136,-0.717005 -1.633108,-0.754097 -3.102172,-0.47707 -0.879989,0.165943 -1.69796,0.241628 -1.817273,0.168619 -0.01303,-0.0085 -0.02761,-0.02474 -0.04006,-0.04115 -0.09891,-0.135234 -0.178619,-0.507578 -0.18012,-0.892449 -0.0017,-0.439857 -0.185401,-1.417004 -0.40829,-2.171503 -0.222879,-0.75451 -0.444785,-1.873245 -0.496344,-2.488179 l -0.09606,-1.118653 1.981389,-0.530537 c 1.088929,-0.291086 2.083426,-0.639817 2.209541,-0.777297 0.381341,-0.41572 -0.03576,-3.403102 -0.500353,-3.586269 -0.764211,-0.301305 -3.582256,0.910059 -4.311011,1.850711 -0.380188,0.490738 -0.996847,1.224104 -1.368955,1.632739 -0.372106,0.408639 -0.899619,1.244071 -1.168817,1.854825 -0.577227,1.309583 -1.188636,1.714222 -2.273593,1.501132 -0.810677,-0.159225 -1.019849,-0.503424 -0.504352,-0.830762 0.159088,-0.101018 0.288203,-0.427369 0.288203,-0.727949 0,-0.300575 0.324704,-1.131117 0.720505,-1.842486 0.395802,-0.711367 0.722589,-1.481125 0.724504,-1.71088 0.002,-0.229754 0.326787,-0.854337 0.724507,-1.390089 0.959811,-1.292925 0.912724,-1.830885 -0.216147,-2.438828 -0.517039,-0.27852 -1.414491,-1.016437 -1.993398,-1.636929 -0.80563,-0.863494 -1.513994,-1.303326 -2.009405,-1.291384 z m 13.645543,1.08575 c -5.37e-4,3.72e-4 -0.0032,0.0039 -0.0037,0.0041 -5.36e-4,3.7e-4 -0.0037,-3.71e-4 -0.0037,0 -0.0017,0.0014 -0.0026,0.0066 -0.0037,0.0082 -5.35e-4,0.0014 -0.0032,0.0027 -0.0037,0.0041 -5.36e-4,0.0014 -0.0032,0.0066 -0.0037,0.0082 -5.36e-4,0.0017 3.66e-4,0.0065 0,0.0082 -5.36e-4,0.003 -0.0037,0.009 -0.0037,0.01232 -0.0054,0.06124 0.02477,0.183354 0.09606,0.374254 0.106579,0.285368 0.192139,0.703339 0.192134,0.929468 0,0.226127 0.402886,0.886339 0.89663,1.464122 0.49374,0.577778 1.038503,1.048728 1.20884,1.048733 0.0067,0 0.01427,9.59e-4 0.02,0 0.01909,-0.0037 0.03479,-0.01543 0.04401,-0.02879 10e-4,-0.0017 0.0032,-0.0065 0.0037,-0.0082 10e-4,-0.0018 0.0032,-0.0062 0.0037,-0.0082 0.001,-0.003 0.0032,-0.0091 0.0037,-0.01233 0.01737,-0.105271 -0.10934,-0.342708 -0.340234,-0.612788 -0.314531,-0.367728 -0.823015,-1.178935 -1.132912,-1.805427 -0.384172,-0.776657 -0.806599,-1.350859 -0.948663,-1.385976 -10e-4,-1.7e-4 -0.0032,1.31e-4 -0.0037,0 -0.0017,-1.86e-4 -0.0066,3.4e-5 -0.008,0 -5.37e-4,2.1e-5 -0.0032,-6.1e-5 -0.0037,0 -5.35e-4,9.7e-5 -0.0032,-1.37e-4 -0.0037,0 -5.35e-4,1.76e-4 -0.0032,-1.86e-4 -0.0037,0 z M 46.86819,42.266098 c 0.289084,-0.09049 3.345602,2.060191 3.350343,2.368909 0.0019,0.122595 -0.09283,0.215021 -0.212147,0.205639 -0.372281,-0.02928 -3.126283,-2.262726 -3.158211,-2.545757 -1.19e-4,-0.0032 0.0033,-0.0096 0.004,-0.01232 3.61e-4,-7.15e-4 -3.6e-4,-0.0033 0,-0.0041 5.36e-4,-7.18e-4 0.0034,-0.0035 0.004,-0.0041 0.0017,-0.0014 0.006,-0.003 0.008,-0.0041 10e-4,-3.7e-4 0.0029,-0.0037 0.004,-0.0041 z m 14.4381,0.0288 c -0.0084,0.0014 -0.01453,0.0067 -0.01999,0.01233 -5.36e-4,7.16e-4 -0.0032,0.0033 -0.0037,0.0041 -0.001,0.0018 -0.0026,0.0062 -0.0037,0.0082 -0.136993,0.262556 1.045876,2.173633 1.465022,2.348345 0.192837,0.08038 0.384531,0.155718 0.424298,0.168618 5.36e-4,8e-5 0.0032,-8e-6 0.0037,0 5.35e-4,-4.5e-5 0.0032,1.15e-4 0.0037,0 5.37e-4,-1.69e-4 0.0032,1.87e-4 0.0037,0 5.37e-4,-3.7e-4 0.0032,-0.0037 0.0037,-0.0041 5.36e-4,-3.7e-4 0.0032,-0.0036 0.0037,-0.0041 0.0043,-0.0046 0.01195,-0.01263 0.01603,-0.02057 0.02085,-0.04368 0.03603,-0.130889 0.03603,-0.234425 0,-0.373547 -1.668998,-2.321837 -1.933353,-2.278428 z m -20.118071,0.02056 c -10e-4,3.72e-4 -0.0029,0.0037 -0.004,0.0041 -0.0073,0.0034 -0.01763,0.0094 -0.02401,0.01645 -0.205679,0.24283 0.07591,2.271369 0.420295,2.656798 0.138745,0.155285 0.252178,0.515013 0.252176,0.797862 0,0.297035 0.276562,0.567193 0.652458,0.641582 0.357946,0.07084 0.731813,0.146364 0.832579,0.168622 6.99e-4,1.73e-4 0.0032,-1.35e-4 0.004,0 0.0017,1.86e-4 0.0063,0.0041 0.008,0.0041 6.96e-4,-2.4e-5 0.0032,-0.004 0.004,-0.0041 0.0017,-1.87e-4 0.0063,3.7e-4 0.008,0 0.0033,-9.59e-4 0.0085,-0.0027 0.012,-0.0041 0.0017,-7.19e-4 0.0062,-0.0031 0.008,-0.0041 0.0018,-10e-4 0.0062,-0.003 0.008,-0.0041 0.0069,-0.0049 0.01688,-0.01334 0.02401,-0.02057 0.08776,-0.09187 0.187127,-0.347323 0.24417,-0.65392 0.14787,-0.794758 -0.336354,-1.158064 -1.124787,-0.847213 -0.163636,0.06452 -0.269913,0.07874 -0.32823,0.02879 -0.07647,-0.07088 -0.06836,-0.265956 0,-0.633355 0.101185,-0.543812 0.02233,-0.79375 -0.248174,-0.79375 -0.0846,0 -0.163794,-0.03975 -0.22816,-0.106923 -0.09824,-0.105153 -0.164112,-0.277997 -0.164114,-0.468851 0,-0.294955 -0.11714,-0.613902 -0.264185,-0.740283 -0.0099,-0.0083 -0.02184,-0.01821 -0.03201,-0.02468 -0.01679,-0.01062 -0.03411,-0.01302 -0.04804,-0.01234 -0.0034,3.68e-4 -0.0087,-0.001 -0.012,0 z m 21.943346,0.464737 c -0.282198,0.02771 -0.207349,0.273621 0.292205,1.056961 0.203269,0.318743 0.40933,0.562316 0.520365,0.621019 0.0076,0.0039 0.01737,0.0061 0.02401,0.0082 0.0017,5.52e-4 0.0062,0.0037 0.008,0.0041 0.0017,1.87e-4 0.0063,-1.17e-4 0.008,0 0.0017,3.6e-5 0.0065,1.22e-4 0.008,0 5.36e-4,-1.02e-4 0.0032,1.42e-4 0.0037,0 0.0022,-5.5e-4 0.006,-0.0032 0.008,-0.0041 0.001,-7.16e-4 0.0026,-0.0032 0.0037,-0.0041 5.36e-4,-5.52e-4 0.0037,5.48e-4 0.0037,0 0.0026,-0.003 0.0056,-0.0087 0.008,-0.01233 0.001,-0.0018 0.0032,-0.0062 0.0037,-0.0082 0.0026,-0.0051 0.0062,-0.01445 0.008,-0.02057 0.07788,-0.291102 -0.531441,-1.534824 -0.808566,-1.636851 -0.0071,-0.0024 -0.01742,-0.0033 -0.02401,-0.0041 -0.0022,-1.81e-4 -0.0059,0 -0.008,0 -0.02199,0 -0.04122,-0.0018 -0.06005,0 z M 22.034819,43.76312 c -0.203964,0.0079 -0.411837,0.03006 -0.632442,0.06169 -1.38109,0.19796 -4.857609,1.703546 -5.183625,2.24553 -0.0998,0.165906 -1.130524,1.534537 -1.10077,2.558098 0.02288,0.787634 0.194311,2.032291 0.380266,2.767837 0.18596,0.735551 0.260858,1.771881 0.164116,2.303108 -0.141739,0.778298 -0.316492,0.966483 -0.888623,0.966483 -0.596074,0 -0.708495,0.143957 -0.708495,0.892453 0,0.84118 0.06349,0.892454 1.148803,0.892454 0.879191,0 1.249199,-0.159292 1.561091,-0.670364 0.664965,-1.089621 0.82943,-2.870612 0.448315,-4.840638 -0.335815,-1.73585 -0.317102,-1.911182 0.292204,-2.924127 0.345998,-0.575204 0.475175,-0.956746 0.368258,-1.05285 -0.004,-0.0033 -0.01133,-0.0097 -0.01602,-0.01232 -0.01452,-0.0071 -0.03175,-0.01233 -0.05203,-0.01233 -0.0673,0 -0.11815,-0.0109 -0.148105,-0.03289 -0.0019,-0.0014 -0.0062,-0.0067 -0.008,-0.0082 -0.0033,-0.0033 -0.0093,-0.0086 -0.01201,-0.01233 -0.0039,-0.0055 -0.0095,-0.01424 -0.01201,-0.02057 -0.0019,-0.0053 -0.003,-0.01468 -0.004,-0.02056 -0.03296,-0.243525 0.694793,-0.891436 1.621135,-1.369526 1.874742,-0.967563 2.941928,-0.996614 5.19163,-0.139828 1.088325,0.414478 1.984926,0.86532 2.053437,1.028171 2.51e-4,7.15e-4 0.0037,0.0034 0.004,0.0041 1.98e-4,5.53e-4 -1.69e-4,0.0034 0,0.0041 1.12e-4,5.51e-4 -8.6e-5,0.0035 0,0.0041 5.5e-5,5.5e-4 -2.9e-5,0.0035 0,0.0041 0,0.0034 5.89e-4,0.009 0,0.01233 -0.0014,0.0055 -0.0052,0.01508 -0.008,0.02056 -0.0019,0.0033 -0.0056,0.0091 -0.008,0.01233 -0.09832,0.122612 -0.579022,0.217969 -1.152806,0.217971 -0.64425,0 -1.588335,0.225114 -2.097468,0.497639 -0.509131,0.272525 -1.315992,0.580772 -1.793252,0.686818 -0.734131,0.163127 -0.858709,0.322794 -0.808566,1.028173 0.03183,0.44782 0.136904,0.895283 0.236165,1.011723 0.0017,0.0018 0.0063,0.0067 0.008,0.0082 0.111747,0.09821 2.713785,-1.05436 2.809965,-1.069303 0.43968,-0.06831 1.089252,-0.06643 1.44501,0.0041 0.06671,0.01321 0.117369,0.02183 0.128091,0.04112 0.128885,0.231756 0.152106,0.806087 0.228158,1.209132 l 0.06404,2.031675 c 0.03537,1.118241 0.246456,2.390839 0.464325,2.825419 0.217873,0.434587 0.695081,1.390719 1.064746,2.12626 0.36966,0.735546 0.86036,1.566172 1.088761,1.84249 0.370628,0.448384 0.297693,0.627385 -0.696489,1.669752 -2.835586,2.973035 -3.533216,4.56052 -2.513756,5.74543 0.232223,0.269917 0.615363,1.333462 0.848592,2.360683 0.233233,1.02723 0.567813,2.047334 0.744522,2.266098 0.146339,0.181158 0.310254,0.293381 0.400279,0.287883 7.79e-4,-7.1e-5 0.0031,1e-4 0.004,0 0.0017,-1.8e-4 0.0065,3.75e-4 0.008,0 0.0023,-5.5e-4 0.0058,-0.0033 0.008,-0.0039 6.99e-4,-1.88e-4 0.0033,3.68e-4 0.004,0 6.98e-4,-3.7e-4 0.0033,-0.0039 0.004,-0.0039 6.44e-4,-3.74e-4 0.0033,3.69e-4 0.004,0 6.44e-4,-3.74e-4 0.0033,-0.0039 0.004,-0.0039 0.0024,-0.0017 0.0059,-0.0061 0.008,-0.0082 5.89e-4,-5.49e-4 0.0034,-0.0033 0.004,-0.0039 0.13649,-0.264205 -0.509933,-4.894259 -0.796558,-5.675516 -0.244448,-0.666305 0.4091,-1.972051 1.909335,-3.804241 1.366386,-1.668723 1.444724,-2.57342 0.372261,-4.44171 -2.089999,-3.640893 -2.967619,-6.644242 -2.145502,-7.345267 0.24801,-0.211479 0.452319,-0.753348 0.452319,-1.205017 0,-0.451664 0.194649,-1.201572 0.432302,-1.669752 0.76408,-1.505282 0.605886,-1.712835 -1.989392,-2.599225 -1.563828,-0.534108 -2.361905,-0.719422 -3.20224,-0.686817 z m 37.610307,0.563437 c -0.02235,0.0021 -0.04348,0.0074 -0.06404,0.01233 -0.14565,0.03517 -0.243138,0.0678 -0.284203,0.102814 -0.0037,0.0034 -0.0092,0.0087 -0.012,0.01233 -10e-4,0.0018 -0.0032,0.0065 -0.0037,0.0082 -10e-4,0.0018 -0.0032,0.0065 -0.0037,0.0082 -3.6e-4,0.0018 1.66e-4,0.0065 0,0.0082 -5.9e-5,0.0029 -5.37e-4,0.0094 0,0.01233 0.01688,0.06702 0.187535,0.157979 0.532367,0.304337 0.421435,0.178863 0.941902,0.576941 1.156808,0.88834 0.214919,0.311395 0.585946,0.64563 0.82458,0.740286 0.442144,0.175379 0.682827,0.224443 0.792558,0.143943 0.05275,-0.04132 0.07604,-0.115746 0.07604,-0.222086 0,-0.163452 -0.156961,-0.296114 -0.348243,-0.296113 -0.191287,0 -0.761102,-0.415561 -1.268888,-0.921244 -0.530814,-0.528612 -1.061628,-0.831878 -1.396976,-0.801973 z M 46.35583,46.345888 c -0.530739,0.04969 -1.629139,0.851314 -1.629139,1.205016 0,0.384281 1.812291,-0.400029 1.957368,-0.847212 0.06387,-0.196889 -0.06371,-0.357806 -0.280193,-0.357804 -0.01587,0 -0.03093,-0.0017 -0.04804,0 z m -4.943456,0.0946 c -0.04406,0.0051 -0.07642,0.02095 -0.09606,0.04112 -0.31733,0.326044 0.293758,1.1087 1.164816,1.497021 0.515414,0.229768 1.05873,0.382272 1.212847,0.341353 0.480831,-0.142874 0.517193,-0.785525 0.04403,-0.785525 -0.208594,0 -0.385559,-0.08521 -0.440307,-0.19741 -0.0014,-0.0032 -0.0067,-0.0091 -0.008,-0.01233 -0.0017,-0.0043 -0.0028,-0.01203 -0.004,-0.01645 -0.0014,-0.0054 -0.0031,-0.01492 -0.004,-0.02056 -5.37e-4,-0.0045 1.8e-4,-0.01186 0,-0.01645 -2.5e-5,-10e-4 0,-0.003 0,-0.0041 0,-0.2712 -1.443353,-0.876379 -1.869309,-0.826648 z m 15.602916,0.592226 c 0.03838,-0.0033 0.07173,-5.53e-4 0.09605,0.0041 0.0078,0.0017 0.01796,0.0054 0.02401,0.0082 0.0022,9.6e-4 0.0062,0.003 0.008,0.0041 0.0017,10e-4 0.0066,0.0029 0.008,0.0041 5.36e-4,7.14e-4 0.0032,0.0034 0.0037,0.0041 0.0037,0.0049 0.0068,0.01421 0.008,0.02056 1.77e-4,0.0018 0,0.0062 0,0.0082 0.0022,0.06215 0.0819,0.315277 0.176121,0.567553 0.119328,0.319498 -0.06768,0.559973 -0.592415,0.764961 -2.048617,0.800269 -3.010327,0.597973 -1.929348,-0.407157 0.395609,-0.36785 1.745175,-0.939366 2.197536,-0.978822 z m -3.790653,2.294883 c 0.189714,-0.0019 0.336676,0.04705 0.412289,0.139828 0.0034,0.0043 0.0088,0.01189 0.012,0.01645 0.02745,0.0416 0.04403,0.09387 0.04403,0.152171 0,0.175128 -0.171296,0.492674 -0.380265,0.707385 -0.308042,0.316494 -0.50864,0.320033 -1.060741,0.01645 l -0.680479,-0.374253 0.608426,-0.33313 c 0.384333,-0.211335 0.762361,-0.32193 1.044733,-0.324902 z m -33.199223,0.995271 c -0.08906,0.0061 -0.196241,0.07944 -0.34424,0.205634 -0.282545,0.240928 -0.403486,0.670171 -0.316221,1.139217 0.0989,0.531537 -0.108268,1.078325 -0.700491,1.846595 -0.462088,0.599454 -0.840588,1.355948 -0.840587,1.682095 0,1.051645 -0.966583,1.930047 -2.333633,2.118033 -0.895904,0.123203 -1.300403,0.328681 -1.368957,0.695043 -0.08505,0.45458 0.152256,0.521746 1.877313,0.518205 2.567574,-0.0054 3.399287,-0.226111 2.954066,-0.777303 -0.243469,-0.301418 -0.245141,-0.512509 -0.008,-0.806089 0.143968,-0.178224 0.208522,-0.39214 0.172122,-0.522305 -0.0022,-0.0074 -0.005,-0.01785 -0.008,-0.02468 -0.002,-0.0044 -0.0057,-0.01223 -0.008,-0.01646 -0.0018,-0.0033 -0.006,-0.0094 -0.008,-0.01232 -0.0033,-0.0049 -0.0081,-0.01206 -0.01201,-0.01647 -8.03e-4,-10e-4 -0.0031,-0.0033 -0.004,-0.0039 -8.02e-4,-10e-4 -0.0032,-0.0033 -0.004,-0.0039 -7.49e-4,-10e-4 -0.0032,-0.0033 -0.004,-0.0039 -0.0027,-0.0033 -0.0058,-0.0091 -0.008,-0.01233 -0.001,-0.0017 -0.0031,-0.0067 -0.004,-0.0082 -3.8e-4,-5.51e-4 -0.0036,-0.0033 -0.004,-0.0039 -0.0014,-0.0033 -0.0032,-0.0092 -0.004,-0.01232 -1.46e-4,-5.49e-4 1.12e-4,-0.0033 0,-0.0039 -1.56e-4,-0.0017 2.1e-5,-0.0067 0,-0.0082 2.1e-5,-5.5e-4 -5.5e-5,-0.0033 0,-0.0039 8.8e-5,-5.49e-4 -1.21e-4,-0.0033 0,-0.0039 4.69e-4,-0.0023 0.0032,-0.006 0.004,-0.0082 0.0011,-0.0027 0.0024,-0.0094 0.004,-0.01233 4.32e-4,-5.51e-4 0.0035,-0.0033 0.004,-0.0039 0.0449,-0.06208 0.212648,-0.106925 0.452315,-0.106925 0.679749,0 0.848502,-0.446863 0.264185,-0.699159 -0.05111,-0.02203 -0.09181,-0.04582 -0.120084,-0.06991 -0.0032,-0.0027 -0.0091,-0.0094 -0.01201,-0.01233 -0.0019,-0.0023 -0.0062,-0.0062 -0.008,-0.0082 -0.0092,-0.01102 -0.01929,-0.0254 -0.02401,-0.03703 -0.0016,-0.0044 -0.003,-0.01211 -0.004,-0.01646 -8.01e-4,-0.0044 2.16e-4,-0.01196 0,-0.01646 -9.7e-5,-0.0055 -8.55e-4,-0.01477 0,-0.02054 0.0015,-0.0081 0.0048,-0.02026 0.008,-0.02881 0.006,-0.01465 0.01651,-0.03355 0.02803,-0.04935 0.0459,-0.06108 0.13297,-0.134908 0.260182,-0.217976 0.282211,-0.184277 0.574398,-0.910029 0.692483,-1.719103 l 0.208146,-1.402429 -0.104077,-0.604564 c -6.44e-4,0.01024 -0.0025,0.02124 -0.004,0.0288 -4.16e-4,0.0018 -0.0035,0.0066 -0.004,0.0082 -2.54e-4,7.17e-4 2.7e-4,0.0033 0,0.0041 -2.72e-4,7.15e-4 -0.0037,0.0034 -0.004,0.0041 -3.08e-4,5.51e-4 3.23e-4,0.0035 0,0.0041 -6.43e-4,10e-4 -0.0032,0.0032 -0.004,0.0041 -3.79e-4,3.7e-4 -0.0036,0.0037 -0.004,0.0041 -4.15e-4,1.85e-4 -0.0036,-1.86e-4 -0.004,0 -8.56e-4,3.72e-4 -0.003,0.004 -0.004,0.0041 -4.88e-4,3.3e-5 -0.0035,4e-6 -0.004,0 -5.23e-4,-8.2e-5 -0.0035,1.18e-4 -0.004,0 -5.37e-4,-1.55e-4 -0.0034,-0.004 -0.004,-0.0041 -5.89e-4,-1.86e-4 -0.0034,1.85e-4 -0.004,0 -5.91e-4,-3.69e-4 -0.0033,-0.0037 -0.004,-0.0041 -0.05319,-0.0349 -0.144166,-0.199612 -0.244169,-0.456228 -0.143553,-0.371159 -0.240409,-0.534125 -0.383991,-0.524393 z m 31.582093,0.254984 c 0.196086,-0.02709 0.461583,0.123163 0.556388,0.415386 0.0055,0.01694 0.01069,0.03725 0.012,0.05347 0.0017,0.02609 -0.0036,0.05478 -0.012,0.07813 -0.0017,0.0044 -0.0059,0.01214 -0.008,0.01645 -0.04571,0.0928 -0.171038,0.156284 -0.336236,0.156284 -0.243052,0 -0.440309,-0.187931 -0.440309,-0.419497 0,-0.184144 0.09828,-0.282274 0.228164,-0.300227 z m -33.09515,0.818427 c -0.221106,0.01483 -0.396279,0.212681 -0.396278,0.448286 0,0.212615 0.08827,0.392124 0.204143,0.435944 0.0031,10e-4 0.0088,0.0032 0.01201,0.0041 0.0053,0.0014 0.01459,0.0033 0.02001,0.0041 0.0044,5.51e-4 0.01159,-1.84e-4 0.01602,0 0.0011,2.7e-5 0.0028,0 0.004,0 0.0045,0 0.01148,3.71e-4 0.01601,0 0.139985,-0.01483 0.320289,-0.208564 0.408286,-0.444168 0.04833,-0.129412 0.05078,-0.239796 0.01201,-0.31668 -0.04341,-0.0821 -0.134763,-0.131607 -0.268187,-0.131607 -0.0092,0 -0.01903,-5.5e-4 -0.02802,0 z m 34.692266,0.226202 c 1.8e-4,-1.87e-4 0.0037,1.58e-4 0.004,0 3.62e-4,-3.8e-5 0.0037,2e-6 0.004,0 3.6e-4,1.17e-4 0.0037,-1.55e-4 0.004,0 9.34e-4,7.15e-4 0.0031,0.0031 0.004,0.0041 0.04013,0.05138 0.106656,0.360645 0.220157,0.958253 0.139693,0.735552 0.357277,2.173977 0.484336,3.195567 0.181685,1.460821 0.148388,1.858926 -0.152106,1.858932 -0.258475,0 -0.325566,-0.23081 -0.208145,-0.711493 0.09674,-0.396039 0.03274,-0.802303 -0.148106,-0.91713 -0.179179,-0.113779 -0.24356,-0.475267 -0.140096,-0.810197 0.22594,-0.731421 -0.332824,-1.171823 -1.208845,-0.945927 -0.529458,0.13654 -0.636294,0.01427 -0.736517,-0.867773 -0.09582,-0.843299 -0.08855,-1.296772 0.06404,-1.443558 0.01149,-0.01062 0.02691,-0.02151 0.04003,-0.02878 0.114634,-0.0604 0.294624,1.38e-4 0.544382,0.160396 0.306829,0.196881 0.556392,0.526197 0.556388,0.732055 0,0.186945 0.02822,0.307164 0.07205,0.370142 0.01034,0.01415 0.02416,0.02875 0.03603,0.03702 0.0055,0.0039 0.01419,0.0057 0.02001,0.0082 0.0029,10e-4 0.0091,0.0033 0.01201,0.0039 0.0029,5.5e-4 0.009,0.0039 0.012,0.0039 0.0041,3.7e-4 0.01181,8.3e-5 0.01602,0 0.0031,-1.59e-4 0.0087,3.7e-4 0.012,0 0.17357,-0.02848 0.411401,-0.45827 0.432303,-1.015837 0.01263,-0.337192 0.02808,-0.537369 0.05203,-0.584002 0.0012,-0.0021 0.0028,-0.007 0.004,-0.0082 z m -23.624527,0.674487 c -0.0082,5.48e-4 -0.01696,0.0027 -0.02401,0.0041 -0.0046,9.58e-4 -0.012,0.0027 -0.016,0.0041 -0.0048,0.0018 -0.012,0.0057 -0.01602,0.0082 -6.96e-4,5.51e-4 -0.0032,0.0039 -0.004,0.0039 -0.0056,0.0044 -0.01252,0.01097 -0.01602,0.01646 -0.0014,0.0023 -0.0031,0.006 -0.004,0.0082 -0.001,0.0033 -0.0034,0.0088 -0.004,0.01233 -1.82e-4,0.0017 9.6e-5,0.0065 0,0.0082 -3.6e-5,0.0017 -9.4e-5,0.0062 0,0.0082 1.79e-4,0.0027 -5.37e-4,0.0093 0,0.01232 5.35e-4,0.0033 0.0031,0.009 0.004,0.01233 0.02424,0.08226 0.133688,0.210837 0.312217,0.349576 0.637388,0.495335 1.028721,0.558109 1.028719,0.168624 0,-10e-4 2.1e-5,-0.0027 0,-0.0039 -0.01084,-0.284524 -0.707658,-0.628043 -1.252874,-0.61279 -0.0029,7.9e-5 -0.0052,-1.76e-4 -0.008,0 z m 27.667358,0.02056 c -5.36e-4,1.87e-4 -0.0037,0.0039 -0.0037,0.0039 -5.37e-4,5.51e-4 -0.0032,0.0033 -0.0037,0.0039 -3.59e-4,5.49e-4 -0.0037,0.0033 -0.0037,0.0039 -1.83e-4,5.5e-4 1.77e-4,0.0033 0,0.0039 -3.64e-4,0.0017 1.77e-4,0.0066 0,0.0082 -1.78e-4,0.0017 6.9e-5,0.0065 0,0.0082 -2.7e-5,0.0027 -1.83e-4,0.0088 0,0.01233 0.0043,0.05458 0.03564,0.160345 0.09206,0.312567 0.07384,0.199208 0.172776,0.337842 0.256179,0.378365 0.0026,10e-4 0.0092,0.0033 0.012,0.0039 0.0022,5.5e-4 0.0062,0.0033 0.008,0.0039 0.0017,5.51e-4 0.0062,-3.75e-4 0.008,0 0.0017,3.68e-4 0.0062,0.0039 0.008,0.0039 0.0017,1.69e-4 0.0062,-5.6e-5 0.008,0 0.0017,6e-6 0.0062,1.15e-4 0.008,0 0.0043,-3.7e-4 0.01191,-0.0027 0.01603,-0.0039 0.001,-1.88e-4 0.0032,3.68e-4 0.0037,0 0.0017,-5.52e-4 0.0065,-0.0033 0.008,-0.0039 5.37e-4,-3.71e-4 0.0032,-0.0039 0.0037,-0.0039 0.006,-0.0039 0.01447,-0.0067 0.02,-0.01233 0.0026,-0.0027 0.0056,-0.0092 0.008,-0.01232 5.35e-4,-5.5e-4 0.0032,-0.0033 0.0037,-0.0039 0.001,-0.0017 0.0032,-0.0065 0.0037,-0.0082 10e-4,-0.0017 0.0032,-0.0065 0.0037,-0.0082 10e-4,-0.0017 0.0032,-0.0062 0.0037,-0.0082 0.001,-0.0027 0.0032,-0.0093 0.0037,-0.01233 0.02964,-0.11247 -0.06137,-0.31109 -0.228154,-0.481186 -0.08928,-0.09104 -0.15427,-0.151327 -0.196134,-0.176847 -0.006,-0.0039 -0.0149,-0.0061 -0.01999,-0.0082 -0.001,-3.7e-4 -0.0032,-0.0039 -0.0037,-0.0039 -5.36e-4,-1.87e-4 -0.0032,1.71e-4 -0.0037,0 -5.35e-4,-1.27e-4 -0.0032,8.2e-5 -0.0037,0 -5.35e-4,-4.5e-5 -0.0032,0 -0.0037,0 -5.37e-4,4.3e-5 -0.0032,-8.9e-5 -0.0037,0 -5.37e-4,1.33e-4 -0.0032,-1.71e-4 -0.0037,0 z M 37.329518,53.18119 c -0.224122,0.01868 -0.465747,0.14543 -0.55639,0.296113 -0.01843,0.03063 -0.03197,0.06262 -0.03602,0.09049 -6.97e-4,0.0057 1.27e-4,0.01493 0,0.02053 -1.1e-5,0.0044 -3.61e-4,0.01211 0,0.01646 0.0014,0.01188 0.004,0.02606 0.008,0.03702 0.0034,0.0088 0.01082,0.02061 0.01602,0.02881 0.0014,0.0017 0.0028,0.0065 0.004,0.0082 0.04425,0.05836 0.135275,0.0946 0.260184,0.0946 0.238631,0 0.514105,-0.132656 0.612428,-0.296114 0.01151,-0.01917 0.02222,-0.03944 0.02803,-0.05757 0.0047,-0.01568 0.0073,-0.03465 0.008,-0.04935 1.04e-4,-0.0044 1.8e-4,-0.01206 0,-0.01646 -3.61e-4,-0.0033 5.36e-4,-0.0091 0,-0.01233 -6.97e-4,-0.0044 -0.0029,-0.01233 -0.004,-0.01646 -5.36e-4,-0.0023 -0.0033,-0.0062 -0.004,-0.0082 -0.001,-0.0027 -0.0028,-0.0094 -0.004,-0.01233 -9.35e-4,-0.0022 -0.0029,-0.0065 -0.004,-0.0082 -10e-4,-0.0017 -0.0029,-0.0065 -0.004,-0.0082 -0.0029,-0.0044 -0.0085,-0.01216 -0.012,-0.01647 -0.0029,-0.0033 -0.0088,-0.0091 -0.012,-0.01233 -0.04824,-0.04809 -0.132313,-0.07813 -0.244173,-0.07816 -0.01864,0 -0.03705,-0.0017 -0.05603,0 z m 10.831575,0 c 0.01203,-0.0017 0.0236,0 0.03603,0 0.146658,0 0.270021,0.05085 0.288202,0.115157 10e-4,0.0044 0,0.01195 0,0.01646 0,10e-4 6.2e-5,0.0027 0,0.0039 -0.0078,0.07393 -0.134086,0.210583 -0.288202,0.308451 -0.159086,0.101018 -0.2882,0.04146 -0.288202,-0.131606 0,-0.159579 0.110251,-0.292779 0.252176,-0.312565 z m 2.425696,0.119266 c 0.0034,-1.81e-4 0.0085,-8.8e-5 0.012,0 0.0056,3.75e-4 0.01454,0.0027 0.02001,0.0039 0.0044,0.001 0.01177,0.0027 0.01601,0.0039 0.0073,0.0027 0.017,0.008 0.02401,0.01233 0.0835,0.05458 0.140098,0.215077 0.140098,0.435946 0,0.27082 -0.08433,0.504015 -0.200142,0.583998 -0.01809,0.01196 -0.04066,0.02049 -0.06005,0.02466 -0.0084,0.0017 -0.01933,0.0039 -0.02803,0.0039 -0.0062,0 -0.01389,5.51e-4 -0.02001,0 -0.01099,-10e-4 -0.02542,-0.0049 -0.03603,-0.0082 -0.131492,-0.04011 -0.232164,-0.213403 -0.232164,-0.419493 0,-0.235537 0.129115,-0.511772 0.288202,-0.612794 0.01989,-0.0126 0.04126,-0.02094 0.06005,-0.02467 0.0047,-5.49e-4 0.01143,-0.0039 0.01602,-0.0039 z m -1.400977,0.111049 c 0.156272,-0.02253 0.31389,0.07095 0.38427,0.287884 0.02589,0.07981 0.01644,0.157255 -0.02002,0.217975 -0.05781,0.09268 -0.180736,0.156281 -0.340238,0.156281 -0.163645,0 -0.294121,-0.05415 -0.356249,-0.131605 -0.0083,-0.01092 -0.01827,-0.02517 -0.02401,-0.03702 -0.005,-0.01086 -0.0094,-0.02551 -0.012,-0.03703 -0.0012,-0.0057 -0.0034,-0.01464 -0.004,-0.02054 -6.96e-4,-0.0094 -9.32e-4,-0.02307 0,-0.03287 0.0014,-0.01233 0.0079,-0.02837 0.01201,-0.04115 0.07052,-0.217374 0.213449,-0.340743 0.360252,-0.361916 z m -2.173521,0.0658 c 0.0097,-10e-4 0.01807,0 0.02802,0 0.15909,0 0.288204,0.132657 0.288201,0.29612 0,0.16345 -0.129111,0.300222 -0.288201,0.300222 -0.159083,0 -0.288198,-0.136776 -0.288198,-0.300222 0,-0.15324 0.114799,-0.280822 0.26018,-0.29612 z m -12.744915,0.296121 c -0.154358,0.0039 -0.278299,0.04119 -0.348242,0.09459 -0.01324,0.01052 -0.02672,0.02528 -0.03603,0.03703 -0.01194,0.01581 -0.02357,0.03569 -0.02802,0.05349 -0.0014,0.0055 5.36e-4,0.01481 0,0.02054 -3.6e-4,0.0057 -5.35e-4,0.01465 0,0.02054 0.0025,0.02259 0.0094,0.04973 0.02402,0.07401 0.09832,0.163458 0.367177,0.296114 0.596417,0.296114 0.205958,0 0.379412,-0.110408 0.412287,-0.250874 0.0026,-0.01223 0.0035,-0.02843 0.004,-0.04114 2.4e-5,-10e-4 0,-0.0027 0,-0.0039 0,-0.163452 -0.268854,-0.300228 -0.596417,-0.300222 -0.01024,0 -0.01806,-1.86e-4 -0.02803,0 z m 13.621529,0.33312 c 0.07908,-0.0057 0.159802,0.01917 0.224154,0.07813 0.0033,0.0033 0.0087,0.009 0.012,0.01233 0.0014,0.0017 0.0066,0.0066 0.008,0.0082 6.96e-4,0.001 0.0033,0.0033 0.004,0.0039 0.0012,0.0017 0.0028,0.0065 0.004,0.0082 0.0036,0.0054 0.0091,0.01459 0.012,0.02054 0.05211,0.113126 -0.0111,0.30752 -0.160114,0.460622 -0.09251,0.09505 -0.177339,0.147949 -0.252177,0.160396 -0.0353,0.0049 -0.07255,0.001 -0.104067,-0.01233 -0.0069,-0.0033 -0.01721,-0.0083 -0.02402,-0.01233 -0.03945,-0.02438 -0.0787,-0.06788 -0.112079,-0.123375 -0.0017,-0.0027 -0.0025,-0.0055 -0.004,-0.0082 -0.140116,-0.256752 0.131815,-0.577113 0.392274,-0.59634 z m 15.670961,0 c -0.104511,0.0027 -0.19461,0.03134 -0.244171,0.08225 -0.0043,0.0044 -0.0086,0.01196 -0.012,0.01646 -5.35e-4,5.51e-4 -0.0037,0.0033 -0.0037,0.0039 -0.0017,0.0023 -0.0026,0.0061 -0.0037,0.0082 -10e-4,0.0023 -0.0032,0.0061 -0.0037,0.0082 -1.82e-4,5.49e-4 1.78e-4,0.0033 0,0.0039 -1.56e-4,5.5e-4 1.23e-4,0.0033 0,0.0039 -3.65e-4,0.0022 -0.0037,0.0062 -0.0037,0.0082 2.7e-5,5.52e-4 0.0037,0.0033 0.0037,0.0039 8.5e-5,5.5e-4 -1.12e-4,0.0033 0,0.0039 1.39e-4,5.51e-4 -1.72e-4,0.0033 0,0.0039 1.78e-4,5.5e-4 -1.82e-4,0.0033 0,0.0039 1.78e-4,5.5e-4 0.0037,0.0033 0.0037,0.0039 3.59e-4,5.51e-4 -3.58e-4,0.0033 0,0.0039 5.37e-4,0.001 0.0032,0.0027 0.0037,0.0039 3.63e-4,5.49e-4 0.0037,0.0033 0.0037,0.0039 0.001,10e-4 0.0026,0.0027 0.0037,0.0039 5.37e-4,5.51e-4 0.0032,0.0033 0.0037,0.0039 0.05189,0.04455 0.191319,0.06985 0.384273,0.06169 0.150051,-0.0065 0.24733,-0.02351 0.288201,-0.04935 5.36e-4,-3.69e-4 0.0032,-0.0039 0.0037,-0.0039 0.0017,-0.0017 0.0065,-0.0027 0.008,-0.0039 10e-4,-0.001 0.0032,-0.0033 0.0037,-0.0039 3.64e-4,-5.51e-4 -3.6e-4,-0.0039 0,-0.0039 5.36e-4,-10e-4 0.0037,-0.0033 0.0037,-0.0039 1.75e-4,-5.5e-4 -1.68e-4,-0.0039 0,-0.0039 9e-5,-5.49e-4 -6e-5,-0.0033 0,-0.0039 2.1e-5,-5.5e-4 1e-5,-0.0033 0,-0.0039 -8.6e-5,-5.52e-4 1.18e-4,-0.0033 0,-0.0039 -1.56e-4,-5.52e-4 1.75e-4,-0.0033 0,-0.0039 -1.83e-4,-5.52e-4 1.75e-4,-0.0033 0,-0.0039 -5.37e-4,-0.001 -0.0032,-0.0027 -0.0037,-0.0039 -3.6e-4,-5.52e-4 -0.0037,-0.0033 -0.0037,-0.0039 -10e-4,-10e-4 -0.0026,-0.0027 -0.0037,-0.0039 -5.35e-4,-5.52e-4 -0.0032,-0.0033 -0.0037,-0.0039 -0.02074,-0.02017 -0.05839,-0.04208 -0.116079,-0.0658 -0.101142,-0.04159 -0.214043,-0.06442 -0.312217,-0.0617 z m -5.495848,1.01995 c -0.166965,0.01459 -0.320222,0.175823 -0.320222,0.448285 0,0.006 -5.37e-4,0.01465 0,0.02055 10e-4,0.0071 0.0021,0.01773 0.0037,0.02466 0.03351,0.132175 0.210383,0.234423 0.420294,0.234423 0.07661,0 0.140294,-0.01658 0.188129,-0.04524 0.110183,-0.06877 0.138097,-0.21137 0.06805,-0.398926 -0.07736,-0.20715 -0.221913,-0.295881 -0.360256,-0.28378 z m 2.833983,0.526427 c -0.08768,0.0039 -0.153113,0.02418 -0.196133,0.05348 -0.0032,0.0023 -0.0092,0.006 -0.012,0.0082 -0.0037,0.0033 -0.0087,0.009 -0.012,0.01232 -0.0032,0.0033 -0.0093,0.0086 -0.012,0.01233 -0.001,0.0017 -0.0026,0.0065 -0.0037,0.0082 -0.0017,0.0027 -0.0066,0.0094 -0.008,0.01233 -0.0017,0.0033 -0.0026,0.0091 -0.0037,0.01233 -0.0017,0.0044 -0.0026,0.01196 -0.0037,0.01646 -0.0017,0.0069 -0.0032,0.0173 -0.0037,0.02467 -0.0037,0.06456 0.02589,0.1516 0.08807,0.254991 0.0026,0.0044 0.0079,0.01217 0.012,0.01647 0.132912,0.130619 0.801078,0.250018 1.533067,0.267323 l 1.396978,0.03287 -1.396978,-0.440057 c -0.660488,-0.206756 -1.117976,-0.304126 -1.376831,-0.292066 z m -31.550068,0.497639 c -0.0676,0.0017 -0.122056,0.02103 -0.160112,0.04935 -0.0046,0.0033 -0.01188,0.0083 -0.01601,0.01233 -0.0017,0.0017 -0.0065,0.0066 -0.008,0.0082 -6.97e-4,0.001 -0.0032,0.0033 -0.004,0.0039 -0.0036,0.0044 -0.0088,0.01179 -0.012,0.01646 -0.12106,0.184381 0.07769,0.63092 0.536375,1.102201 0.521539,0.535857 1.23452,0.742785 1.408987,0.468846 0.02435,-0.03993 0.04002,-0.09177 0.04002,-0.15217 0,-0.317497 -1.403514,-1.509354 -1.777243,-1.509354 -0.0033,0 -0.0047,-7.1e-5 -0.008,0 z m 37.606305,1.283156 c 0.979272,-0.03355 1.691819,0.33586 1.901328,1.019948 0.35801,1.168955 0.05168,2.905805 -0.716498,4.063336 -0.432778,0.652132 -0.72982,1.340105 -0.660461,1.525815 0.06936,0.185702 -0.06467,0.497609 -0.29621,0.695044 -0.340646,0.290474 -0.508441,0.229253 -0.880615,-0.316679 -0.614974,-0.902105 -0.59122,-1.731448 0.05205,-1.731443 0.282819,0 0.743886,-0.272373 1.020711,-0.60457 0.588342,-0.70599 0.414552,-1.173931 -1.156808,-3.154431 l -0.980686,-1.233811 1.148801,-0.201523 c 0.198432,-0.03442 0.387056,-0.05548 0.568397,-0.06169 z m -3.218251,0.238538 c 0.365162,-0.04523 0.825829,0.582972 1.573098,2.03167 0.863632,1.674262 0.980742,2.081952 0.628446,2.220854 -0.226503,0.0893 -0.454609,0.166009 -0.520365,0.172728 -0.0022,1.48e-4 -0.0063,0 -0.008,0 -0.0017,-1.82e-4 -0.0056,-0.0027 -0.008,-0.0039 -0.0017,-0.001 -0.0059,-0.0027 -0.008,-0.0039 -0.134499,-0.08657 -0.894082,-0.80638 -1.765238,-1.673867 -0.95675,-0.952729 -1.354433,-1.392602 -1.368954,-1.612175 -5.36e-4,-0.01034 0.0026,-0.02357 0.0037,-0.03287 0.001,-0.0057 0.0026,-0.01515 0.0037,-0.02053 10e-4,-0.0033 0.0026,-0.0093 0.0037,-0.01233 10e-4,-0.0033 0.0026,-0.0094 0.0037,-0.01233 0.0026,-0.0049 0.0087,-0.01189 0.012,-0.01646 0.0081,-0.0108 0.02047,-0.02364 0.032,-0.03287 0.04342,-0.03349 0.110848,-0.05839 0.19614,-0.07813 0.318174,-0.07363 0.681347,-0.320023 0.808564,-0.546988 0.128566,-0.229366 0.263821,-0.359985 0.412291,-0.37837 z m -24.869394,1.155661 c -0.382677,0.09471 -0.490446,4.141433 -0.116083,4.680249 0.141356,0.203445 0.192046,0.636562 0.108076,0.966483 -0.09911,0.389424 0.02938,0.702007 0.368259,0.88834 0.287092,0.157865 0.651887,0.657475 0.812567,1.110425 0.160687,0.452954 1.156004,1.759378 2.209547,2.903562 1.05354,1.14419 2.111589,2.483117 2.353647,2.973477 0.100196,0.202982 0.150899,0.329589 0.144101,0.374255 -1.8e-4,10e-4 -0.0037,0.0033 -0.004,0.0039 -1.76e-4,3.73e-4 1.82e-4,0.0039 0,0.0039 -5.34e-4,5.51e-4 -0.0034,0.0033 -0.004,0.0039 -3.62e-4,1.88e-4 -0.0036,0.0039 -0.004,0.0039 -3.61e-4,1.27e-4 -0.0036,-9.4e-5 -0.004,0 -3.6e-4,4.4e-5 -0.0035,-1.6e-5 -0.004,0 -5.35e-4,-3.3e-5 -0.0035,6.7e-5 -0.004,0 -0.08452,-0.01729 -0.379544,-0.335062 -0.920645,-0.97882 -0.68388,-0.813618 -2.302763,-2.688358 -3.594515,-4.166159 -1.341853,-1.535112 -2.43203,-3.067726 -2.541777,-3.573927 -0.287745,-1.327199 -2.299479,-4.733443 -2.862001,-4.844751 -0.452643,-0.08956 -1.643649,0.979366 -6.31642,5.667292 -1.194343,1.198217 -1.403422,1.577733 -1.396977,2.525193 0.0042,0.613498 0.260423,1.649288 0.572399,2.303105 l 0.5684,1.188568 -0.164116,-1.813694 -0.164115,-1.817809 3.422395,-3.467002 3.418389,-3.466999 0.340241,0.826649 c 1.010827,2.47366 1.54508,3.946525 1.54508,4.264864 0,5.5e-4 -4.5e-5,0.0033 0,0.0039 8.5e-5,10e-4 -1.29e-4,0.0033 0,0.0039 0.0432,0.23831 1.43843,1.878071 3.138197,3.68086 1.726741,1.831414 3.44336,3.748845 3.814664,4.264863 0.74928,1.041261 2.301613,1.357891 2.30161,0.468846 0,-0.149637 0.05579,-0.264733 0.140099,-0.320795 0.06095,-0.03899 0.137816,-0.05012 0.220155,-0.02054 0.19886,0.07144 0.328308,0.385097 0.284199,0.695052 -0.02969,0.208648 -0.04682,0.338481 -0.03203,0.386594 3.61e-4,0.001 -3.61e-4,0.0033 0,0.0039 3.61e-4,5.5e-4 0.0036,0.0033 0.004,0.0039 0.0018,0.0027 0.0058,0.0068 0.008,0.0082 5.36e-4,1.86e-4 0.0033,0.0039 0.004,0.0039 6.97e-4,1.04e-4 0.0033,-3.7e-5 0.004,0 0.0029,-1.04e-4 0.0085,-0.0027 0.012,-0.0039 0.0026,-0.001 0.0091,-0.0023 0.012,-0.0039 0.0041,-0.0027 0.0114,-0.0086 0.01602,-0.01232 0.05956,-0.04853 0.165324,-0.180968 0.33223,-0.398938 0.639909,-0.835666 0.548235,-1.256983 -0.4283,-1.99877 -0.477263,-0.36254 -0.864602,-0.837368 -0.864604,-1.056958 0,-0.219566 -0.191705,-0.475873 -0.424296,-0.567554 -0.655092,-0.258291 -3.622065,-4.168506 -3.978785,-5.243685 -0.175197,-0.528058 -0.559885,-1.279936 -0.852595,-1.669752 -0.292716,-0.38981 -0.53237,-1.02229 -0.532373,-1.406537 0,-0.932291 -0.575874,-3.090022 -0.87261,-3.355957 -0.0098,-0.0083 -0.02285,-0.01659 -0.03203,-0.02054 -0.0056,-0.0023 -0.01463,-0.0039 -0.02001,-0.0039 -0.0046,0 -0.01148,-10e-4 -0.01602,0 z m 31.245859,0.431839 c 0.02118,-0.0071 0.04422,-0.0027 0.06804,0.01233 0.0062,0.0039 0.01388,0.01129 0.01999,0.01646 0.148658,0.131952 0.266512,0.617417 0.264185,1.114544 -0.0026,0.521582 -0.129985,1.149022 -0.284196,1.394202 -0.04701,0.07472 -0.08968,0.117123 -0.124088,0.119266 -0.0056,-5.4e-5 -0.01469,-0.0023 -0.02,-0.0039 -0.0032,-0.0017 -0.009,-0.0057 -0.012,-0.0082 -0.0032,-0.0027 -0.0092,-0.009 -0.012,-0.01232 -0.0789,-0.09885 -0.114026,-0.493946 -0.11608,-1.225581 -0.0022,-0.801616 0.07111,-1.302787 0.19614,-1.394206 0.0059,-0.0039 0.01378,-0.01024 0.01999,-0.01233 z m -26.842777,0.79375 c -0.140419,0.0049 -0.267517,0.02892 -0.356251,0.0658 -0.01989,0.0082 -0.03676,0.01686 -0.04804,0.02466 -0.0017,10e-4 -0.0066,0.0027 -0.008,0.0039 -6.97e-4,5.5e-4 -0.0033,0.0033 -0.004,0.0039 -10e-4,10e-4 -0.003,0.0027 -0.004,0.0039 -0.0014,0.0017 -0.0031,0.0066 -0.004,0.0082 -1.79e-4,5.51e-4 1.81e-4,0.0033 0,0.0039 -3.6e-4,10e-4 -0.0039,0.0027 -0.004,0.0039 1.4e-4,0.0017 0.0034,0.0067 0.004,0.0082 3.62e-4,5.5e-4 -3.6e-4,0.0039 0,0.0039 3.62e-4,5.51e-4 0.0036,0.0039 0.004,0.0039 5.37e-4,5.49e-4 0.0034,0.0039 0.004,0.0039 0.0018,0.0017 0.0058,0.0027 0.008,0.0039 0.0017,10e-4 0.0062,0.0033 0.008,0.0039 0.0018,0.001 0.0059,0.0033 0.008,0.0039 0.0762,0.03249 0.272468,0.05287 0.548386,0.04935 0.264729,-0.0033 0.431959,-0.02578 0.480334,-0.05757 6.97e-4,-3.69e-4 0.0034,-0.0039 0.004,-0.0039 5.37e-4,-3.69e-4 0.0035,-0.0039 0.004,-0.0039 3.6e-4,-5.5e-4 0.0037,-0.0039 0.004,-0.0039 1.81e-4,-5.5e-4 -1.55e-4,-0.0039 0,-0.0039 5.9e-5,-5.49e-4 -1.1e-5,-0.0039 0,-0.0039 -9e-5,-5.51e-4 1.36e-4,-0.0039 0,-0.0039 -1.81e-4,-5.51e-4 1.81e-4,-0.0039 0,-0.0039 -5.36e-4,-10e-4 -0.0032,-0.0033 -0.004,-0.0039 -5.36e-4,-5.49e-4 -0.0035,-0.0039 -0.004,-0.0039 -5.35e-4,-5.5e-4 -0.0033,-0.0033 -0.004,-0.0039 -0.0028,-0.0023 -0.0084,-0.0061 -0.012,-0.0082 -0.02254,-0.01317 -0.05931,-0.02698 -0.11208,-0.04115 -0.153905,-0.04119 -0.342893,-0.05967 -0.512355,-0.05348 z m 26.178313,2.69381 c 0.0017,-2.2e-5 0.0062,0.0039 0.008,0.0039 10e-4,1.55e-4 0.0032,-1.88e-4 0.0037,0 0.0032,10e-4 0.0092,0.0023 0.012,0.0039 5.35e-4,5.5e-4 0.0032,0.0033 0.0037,0.0039 5.36e-4,5.49e-4 0.0037,0.0033 0.0037,0.0039 0.0017,0.0023 0.0026,0.0056 0.0037,0.0082 0.001,0.0027 0.0032,0.0091 0.0037,0.01232 0.02439,0.134822 -0.169414,0.675938 -0.456313,1.26671 -0.2091,0.430561 -0.394945,0.73266 -0.496347,0.818427 -0.01045,0.0083 -0.02353,0.0169 -0.032,0.02055 -0.0017,5.51e-4 -0.0062,-3.68e-4 -0.008,0 -10e-4,1.65e-4 -0.0032,0.0039 -0.0037,0.0039 -0.0017,8.2e-5 -0.0066,1.76e-4 -0.008,0 -5.36e-4,-1.42e-4 -0.0032,-0.0039 -0.0037,-0.0039 -5.35e-4,-1.87e-4 -0.0032,3.68e-4 -0.0037,0 -5.37e-4,-3.68e-4 -0.0032,-0.0039 -0.0037,-0.0039 -5.36e-4,-5.52e-4 -0.0037,-0.0033 -0.0037,-0.0039 -0.0022,-0.0039 -0.0063,-0.01119 -0.008,-0.01646 -0.0021,-0.0088 -0.0037,-0.01961 -0.0037,-0.03287 -0.01287,-0.431722 0.689399,-1.899895 0.952666,-2.068684 0.0043,-0.0027 0.01179,-0.0062 0.01603,-0.0082 0.0043,-0.0017 0.01211,-0.0033 0.01604,-0.0039 0.0022,-3.75e-4 0.0062,-0.0039 0.008,-0.0039 z m -40.864589,9.956827 c -0.03879,0.0044 -0.0747,0.01917 -0.104078,0.03703 -0.01003,0.0065 -0.0231,0.01669 -0.03201,0.02467 -0.01205,0.01124 -0.02618,0.02693 -0.03603,0.04115 -0.10686,0.160307 -0.07713,0.503018 0.108078,1.003498 0.14238,0.384782 0.173116,0.634902 0.09606,0.727946 -0.0032,0.0039 -0.0084,0.0092 -0.012,0.01233 -0.0028,0.0023 -0.0091,0.0062 -0.012,0.0082 -0.0029,0.0017 -0.0087,0.0067 -0.012,0.0082 -0.0087,0.0039 -0.02186,0.0065 -0.03201,0.0082 -0.0077,0.001 -0.01946,0.0039 -0.02802,0.0039 -0.155148,0 -0.280197,-0.163424 -0.280197,-0.361918 0,-0.03625 -0.0037,-0.06772 -0.012,-0.09047 -0.0026,-0.0067 -0.0087,-0.01515 -0.012,-0.02054 -10e-4,-0.0017 -0.0028,-0.0067 -0.004,-0.0082 -6.97e-4,-5.51e-4 -0.0033,-0.0033 -0.004,-0.0039 -6.95e-4,-5.52e-4 -0.0033,-0.0033 -0.004,-0.0039 -6.98e-4,-5.53e-4 -0.0032,-0.0033 -0.004,-0.0039 -0.0014,-0.001 -0.0065,-0.0033 -0.008,-0.0039 -6.99e-4,-5.5e-4 -0.0031,-0.0039 -0.004,-0.0039 -0.0042,-0.0022 -0.01133,-0.0027 -0.01602,-0.0039 -0.0029,-5.51e-4 -0.009,-0.0039 -0.012,-0.0039 -0.0041,-1.82e-4 -0.01158,-1.82e-4 -0.01601,0 -0.07984,0.0071 -0.207511,0.09804 -0.376264,0.271438 -0.260618,0.267768 -0.394099,0.704385 -0.296209,0.966488 0.131176,0.35121 0.38924,0.424115 0.980686,0.279666 1.778494,-0.434316 2.156155,-1.704639 0.784549,-2.628017 -0.282682,-0.190309 -0.502327,-0.272803 -0.652454,-0.25499 z m 19.289494,2.179732 c -0.240378,0.01135 -0.605137,0.136837 -0.832584,0.287885 -0.144621,0.09603 -0.236033,0.162492 -0.272188,0.205637 -0.005,0.0061 -0.0093,0.01525 -0.012,0.02054 -3.6e-4,5.51e-4 -0.0037,0.0033 -0.004,0.0039 -1.8e-4,5.52e-4 1.79e-4,0.0033 0,0.0039 -1.43e-4,5.51e-4 9.3e-5,0.0033 0,0.0039 -4.7e-5,5.49e-4 0,0.0033 0,0.0039 9.3e-5,5.51e-4 -1.43e-4,0.0033 0,0.0039 1.79e-4,5.51e-4 -1.8e-4,0.0033 0,0.0039 3.61e-4,5.51e-4 0.0037,0.0033 0.004,0.0039 9.34e-4,0.001 0.0029,0.0033 0.004,0.0039 5.36e-4,3.68e-4 0.0033,0.0039 0.004,0.0039 0.002,0.001 0.0056,0.0027 0.008,0.0039 0.0017,5.51e-4 0.006,0.0033 0.008,0.0039 0.04251,0.0145 0.130624,0.01647 0.26018,0.01647 0.238633,0 0.629978,-0.129468 0.868609,-0.287896 0.141612,-0.09403 0.230572,-0.158401 0.268188,-0.201513 0.0014,-0.0017 0.0067,-0.0065 0.008,-0.0082 0.0025,-0.0033 0.0062,-0.0093 0.008,-0.01232 3.62e-4,-5.51e-4 -3.6e-4,-0.0033 0,-0.0039 3.62e-4,-5.51e-4 0.0037,-0.0033 0.004,-0.0039 1.8e-4,-5.5e-4 -1.4e-4,-0.0033 0,-0.0039 9.3e-5,-5.51e-4 -4.7e-5,-0.0033 0,-0.0039 0,-5.51e-4 4.7e-5,-0.0033 0,-0.0039 -1.4e-4,-5.5e-4 1.8e-4,-0.0033 0,-0.0039 -1.8e-4,-5.49e-4 -0.0037,-0.0033 -0.004,-0.0039 -0.0014,-0.0022 -0.0056,-0.0065 -0.008,-0.0082 -0.0014,-0.001 -0.0065,-0.0033 -0.008,-0.0039 -6.98e-4,-3.7e-4 -0.0031,-0.0039 -0.004,-0.0039 -0.0026,-0.001 -0.0088,-0.0033 -0.012,-0.0039 -0.0444,-0.01289 -0.128643,-0.01646 -0.252177,-0.01646 -0.01119,0 -0.0242,-5.5e-4 -0.03603,0 z m 0.744522,0.933582 c -0.192264,0.0027 -0.464254,0.0416 -0.824578,0.111038 -0.551626,0.106322 -0.895008,0.255882 -1.000701,0.411271 -0.0099,0.0151 -0.01858,0.03414 -0.02401,0.04935 -0.0024,0.007 -0.0066,0.01762 -0.008,0.02468 -0.0014,0.0071 1.82e-4,0.01762 0,0.02467 -9.4e-5,0.0071 -9.33e-4,0.01762 0,0.02466 10e-4,0.0071 0.002,0.01762 0.004,0.02466 0.0047,0.01525 0.01465,0.03414 0.02401,0.04935 0.04857,0.07596 0.156122,0.152385 0.324228,0.222086 0.659183,0.273292 1.03974,0.202553 1.513056,-0.28377 0.218453,-0.224443 0.333266,-0.390187 0.340241,-0.497644 3.61e-4,-0.0071 6.96e-4,-0.01801 0,-0.02468 -0.0017,-0.01206 -0.0071,-0.02665 -0.01201,-0.03702 -9.33e-4,-0.0017 -0.0029,-0.0065 -0.004,-0.0082 -0.0023,-0.0033 -0.0053,-0.009 -0.008,-0.01233 -0.0029,-0.0033 -0.0086,-0.0093 -0.012,-0.01233 -0.01013,-0.009 -0.02573,-0.01762 -0.04004,-0.02467 -0.05738,-0.02699 -0.150077,-0.04296 -0.272187,-0.04115 z"
       inkscape:connector-curvature="0" />
  </g>
</svg>
